<svg xmlns="http://www.w3.org/2000/svg" width="1024" height="1024" viewBox="0 0 1024 1024"><defs><radialGradient id="bg" cx="50%" cy="40%" r="78%"><stop offset="0" stop-color="#3A1D12"/><stop offset="0.6" stop-color="#241009"/><stop offset="1" stop-color="#150803"/></radialGradient><linearGradient id="spec" x1="512" y1="0" x2="512" y2="1024" gradientUnits="userSpaceOnUse"><stop offset="0" stop-color="#FFFFFF" stop-opacity="0.65"/><stop offset="0.42" stop-color="#FFFFFF" stop-opacity="0.18"/><stop offset="0.62" stop-color="#FFFFFF" stop-opacity="0"/><stop offset="1" stop-color="#FFFFFF" stop-opacity="0"/></linearGradient><linearGradient id="sheen" x1="512" y1="30" x2="512" y2="900" gradientUnits="userSpaceOnUse"><stop offset="0" stop-color="#FFFFFF" stop-opacity="0.12"/><stop offset="0.5" stop-color="#FFFFFF" stop-opacity="0"/></linearGradient><filter id="glow" x="-25%" y="-25%" width="150%" height="150%"><feDropShadow dx="0" dy="0" stdDeviation="14" flood-color="#FF8A5C" flood-opacity="0.28"/></filter><filter id="ds" x="-20%" y="-20%" width="140%" height="140%"><feDropShadow dx="0" dy="12" stdDeviation="16" flood-color="#000000" flood-opacity="0.45"/></filter></defs><rect width="1024" height="1024" fill="url(#bg)"/><g filter="url(#glow)"><g filter="url(#ds)"><g transform="rotate(0,512,512)"><path d="M534,420 L672,322 L707,122 L292,142 L367,287 Z" fill="#F5C6AE" stroke="#F5C6AE" stroke-width="56" stroke-linejoin="round"/><path d="M534,420 L672,322 L707,122 L292,142 L367,287 Z" fill="none" stroke="url(#spec)" stroke-width="56" stroke-linejoin="round"/><path d="M534,420 L672,322 L707,122 L292,142 L367,287 Z" fill="#F5C6AE" stroke="#F5C6AE" stroke-width="40" stroke-linejoin="round"/><path d="M534,420 L672,322 L707,122 L292,142 L367,287 Z" fill="url(#sheen)"/></g><g transform="rotate(60,512,512)"><path d="M534,420 L672,322 L707,122 L292,142 L367,287 Z" fill="#F5A583" stroke="#F5A583" stroke-width="56" stroke-linejoin="round"/><path d="M534,420 L672,322 L707,122 L292,142 L367,287 Z" fill="none" stroke="url(#spec)" stroke-width="56" stroke-linejoin="round"/><path d="M534,420 L672,322 L707,122 L292,142 L367,287 Z" fill="#F5A583" stroke="#F5A583" stroke-width="40" stroke-linejoin="round"/><path d="M534,420 L672,322 L707,122 L292,142 L367,287 Z" fill="url(#sheen)"/></g><g transform="rotate(120,512,512)"><path d="M534,420 L672,322 L707,122 L292,142 L367,287 Z" fill="#F0805C" stroke="#F0805C" stroke-width="56" stroke-linejoin="round"/><path d="M534,420 L672,322 L707,122 L292,142 L367,287 Z" fill="none" stroke="url(#spec)" stroke-width="56" stroke-linejoin="round"/><path d="M534,420 L672,322 L707,122 L292,142 L367,287 Z" fill="#F0805C" stroke="#F0805C" stroke-width="40" stroke-linejoin="round"/><path d="M534,420 L672,322 L707,122 L292,142 L367,287 Z" fill="url(#sheen)"/></g><g transform="rotate(180,512,512)"><path d="M534,420 L672,322 L707,122 L292,142 L367,287 Z" fill="#E25F3F" stroke="#E25F3F" stroke-width="56" stroke-linejoin="round"/><path d="M534,420 L672,322 L707,122 L292,142 L367,287 Z" fill="none" stroke="url(#spec)" stroke-width="56" stroke-linejoin="round"/><path d="M534,420 L672,322 L707,122 L292,142 L367,287 Z" fill="#E25F3F" stroke="#E25F3F" stroke-width="40" stroke-linejoin="round"/><path d="M534,420 L672,322 L707,122 L292,142 L367,287 Z" fill="url(#sheen)"/></g><g transform="rotate(240,512,512)"><path d="M534,420 L672,322 L707,122 L292,142 L367,287 Z" fill="#C8452B" stroke="#C8452B" stroke-width="56" stroke-linejoin="round"/><path d="M534,420 L672,322 L707,122 L292,142 L367,287 Z" fill="none" stroke="url(#spec)" stroke-width="56" stroke-linejoin="round"/><path d="M534,420 L672,322 L707,122 L292,142 L367,287 Z" fill="#C8452B" stroke="#C8452B" stroke-width="40" stroke-linejoin="round"/><path d="M534,420 L672,322 L707,122 L292,142 L367,287 Z" fill="url(#sheen)"/></g><g transform="rotate(300,512,512)"><path d="M534,420 L672,322 L707,122 L292,142 L367,287 Z" fill="#A0311D" stroke="#A0311D" stroke-width="56" stroke-linejoin="round"/><path d="M534,420 L672,322 L707,122 L292,142 L367,287 Z" fill="none" stroke="url(#spec)" stroke-width="56" stroke-linejoin="round"/><path d="M534,420 L672,322 L707,122 L292,142 L367,287 Z" fill="#A0311D" stroke="#A0311D" stroke-width="40" stroke-linejoin="round"/><path d="M534,420 L672,322 L707,122 L292,142 L367,287 Z" fill="url(#sheen)"/></g></g></g><g transform="rotate(60,512,512) translate(512,252) rotate(-70) scale(0.92)"><g transform="translate(0,-3.5)" opacity="0.45"><path fill-rule="evenodd" fill="#E0906F" d="M0,-52 C-18,-64 -52,-66 -78,-56 L-78,34 C-52,24 -18,26 0,38 C18,26 52,24 78,34 L78,-56 C52,-66 18,-64 0,-52 Z M-6,-44 L-6,26 L6,26 L6,-44 Z"/></g><path fill-rule="evenodd" fill="#FFE4D6" d="M0,-52 C-18,-64 -52,-66 -78,-56 L-78,34 C-52,24 -18,26 0,38 C18,26 52,24 78,34 L78,-56 C52,-66 18,-64 0,-52 Z M-6,-44 L-6,26 L6,26 L6,-44 Z"/></g><g transform="rotate(120,512,512) translate(512,252) rotate(-112) scale(0.92)"><g transform="translate(0,-3.5)" opacity="0.45"><path fill-rule="evenodd" fill="#DB6B44" d="M-59,-55 h118 a16,16 0 0 1 16,16 v78 a16,16 0 0 1 -16,16 h-118 a16,16 0 0 1 -16,-16 v-78 a16,16 0 0 1 16,-16 Z M-62,-43 h19 a4,4 0 0 1 4,4 v8 a4,4 0 0 1 -4,4 h-19 a4,4 0 0 1 -4,-4 v-8 a4,4 0 0 1 4,-4 Z M-62,27 h19 a4,4 0 0 1 4,4 v8 a4,4 0 0 1 -4,4 h-19 a4,4 0 0 1 -4,-4 v-8 a4,4 0 0 1 4,-4 Z M-27,-43 h19 a4,4 0 0 1 4,4 v8 a4,4 0 0 1 -4,4 h-19 a4,4 0 0 1 -4,-4 v-8 a4,4 0 0 1 4,-4 Z M-27,27 h19 a4,4 0 0 1 4,4 v8 a4,4 0 0 1 -4,4 h-19 a4,4 0 0 1 -4,-4 v-8 a4,4 0 0 1 4,-4 Z M8,-43 h19 a4,4 0 0 1 4,4 v8 a4,4 0 0 1 -4,4 h-19 a4,4 0 0 1 -4,-4 v-8 a4,4 0 0 1 4,-4 Z M8,27 h19 a4,4 0 0 1 4,4 v8 a4,4 0 0 1 -4,4 h-19 a4,4 0 0 1 -4,-4 v-8 a4,4 0 0 1 4,-4 Z M43,-43 h19 a4,4 0 0 1 4,4 v8 a4,4 0 0 1 -4,4 h-19 a4,4 0 0 1 -4,-4 v-8 a4,4 0 0 1 4,-4 Z M43,27 h19 a4,4 0 0 1 4,4 v8 a4,4 0 0 1 -4,4 h-19 a4,4 0 0 1 -4,-4 v-8 a4,4 0 0 1 4,-4 Z M-52,-16 h104 a6,6 0 0 1 6,6 v20 a6,6 0 0 1 -6,6 h-104 a6,6 0 0 1 -6,-6 v-20 a6,6 0 0 1 6,-6 Z "/></g><path fill-rule="evenodd" fill="#FFCFBE" d="M-59,-55 h118 a16,16 0 0 1 16,16 v78 a16,16 0 0 1 -16,16 h-118 a16,16 0 0 1 -16,-16 v-78 a16,16 0 0 1 16,-16 Z M-62,-43 h19 a4,4 0 0 1 4,4 v8 a4,4 0 0 1 -4,4 h-19 a4,4 0 0 1 -4,-4 v-8 a4,4 0 0 1 4,-4 Z M-62,27 h19 a4,4 0 0 1 4,4 v8 a4,4 0 0 1 -4,4 h-19 a4,4 0 0 1 -4,-4 v-8 a4,4 0 0 1 4,-4 Z M-27,-43 h19 a4,4 0 0 1 4,4 v8 a4,4 0 0 1 -4,4 h-19 a4,4 0 0 1 -4,-4 v-8 a4,4 0 0 1 4,-4 Z M-27,27 h19 a4,4 0 0 1 4,4 v8 a4,4 0 0 1 -4,4 h-19 a4,4 0 0 1 -4,-4 v-8 a4,4 0 0 1 4,-4 Z M8,-43 h19 a4,4 0 0 1 4,4 v8 a4,4 0 0 1 -4,4 h-19 a4,4 0 0 1 -4,-4 v-8 a4,4 0 0 1 4,-4 Z M8,27 h19 a4,4 0 0 1 4,4 v8 a4,4 0 0 1 -4,4 h-19 a4,4 0 0 1 -4,-4 v-8 a4,4 0 0 1 4,-4 Z M43,-43 h19 a4,4 0 0 1 4,4 v8 a4,4 0 0 1 -4,4 h-19 a4,4 0 0 1 -4,-4 v-8 a4,4 0 0 1 4,-4 Z M43,27 h19 a4,4 0 0 1 4,4 v8 a4,4 0 0 1 -4,4 h-19 a4,4 0 0 1 -4,-4 v-8 a4,4 0 0 1 4,-4 Z M-52,-16 h104 a6,6 0 0 1 6,6 v20 a6,6 0 0 1 -6,6 h-104 a6,6 0 0 1 -6,-6 v-20 a6,6 0 0 1 6,-6 Z "/></g><g transform="rotate(180,512,512) translate(512,252) rotate(-188) scale(0.92)"><g transform="translate(0,-3.5)" opacity="0.45"><path fill-rule="evenodd" fill="#CC4A28" d="M-52,-45 h104 a18,18 0 0 1 18,18 v64 a18,18 0 0 1 -18,18 h-104 a18,18 0 0 1 -18,-18 v-64 a18,18 0 0 1 18,-18 Z M-42,-29 h84 a10,10 0 0 1 10,10 v48 a10,10 0 0 1 -10,10 h-84 a10,10 0 0 1 -10,-10 v-48 a10,10 0 0 1 10,-10 Z"/><path fill="none" stroke="#CC4A28" stroke-width="14" stroke-linecap="round" d="M-28,-49 L-54,-82 M28,-49 L54,-82"/></g><path fill-rule="evenodd" fill="#FFC0A8" d="M-52,-45 h104 a18,18 0 0 1 18,18 v64 a18,18 0 0 1 -18,18 h-104 a18,18 0 0 1 -18,-18 v-64 a18,18 0 0 1 18,-18 Z M-42,-29 h84 a10,10 0 0 1 10,10 v48 a10,10 0 0 1 -10,10 h-84 a10,10 0 0 1 -10,-10 v-48 a10,10 0 0 1 10,-10 Z"/><path fill="none" stroke="#FFC0A8" stroke-width="14" stroke-linecap="round" d="M-28,-49 L-54,-82 M28,-49 L54,-82"/></g><g transform="rotate(240,512,512) translate(512,252) rotate(-234) scale(0.92)"><g transform="translate(0,-3.5)" opacity="0.45"><path fill="#B0361E" stroke="#B0361E" stroke-width="10" stroke-linejoin="round" d="M-45,-38 L45,-38 C78,-38 92,-10 90,18 C88,44 68,52 52,40 L30,22 L-30,22 L-52,40 C-68,52 -88,44 -90,18 C-92,-10 -78,-38 -45,-38 Z "/><path fill-rule="evenodd" fill="#B0361E" d="M-58,-13 h11 v-8 a4,4 0 0 1 4,-4 h6 a4,4 0 0 1 4,4 v8 h11 a4,4 0 0 1 4,4 v6 a4,4 0 0 1 -4,4 h-11 v8 a4,4 0 0 1 -4,4 h-6 a4,4 0 0 1 -4,-4 v-8 h-11 a4,4 0 0 1 -4,-4 v-6 a4,4 0 0 1 4,-4 Z M30,-16 a8.5,8.5 0 1 0 17,0 a8.5,8.5 0 1 0 -17,0 Z M46,3 a8.5,8.5 0 1 0 17,0 a8.5,8.5 0 1 0 -17,0 Z "/></g><path fill="#F9B096" stroke="#F9B096" stroke-width="10" stroke-linejoin="round" d="M-45,-38 L45,-38 C78,-38 92,-10 90,18 C88,44 68,52 52,40 L30,22 L-30,22 L-52,40 C-68,52 -88,44 -90,18 C-92,-10 -78,-38 -45,-38 Z "/><path fill-rule="evenodd" fill="#C8452B" d="M-58,-13 h11 v-8 a4,4 0 0 1 4,-4 h6 a4,4 0 0 1 4,4 v8 h11 a4,4 0 0 1 4,4 v6 a4,4 0 0 1 -4,4 h-11 v8 a4,4 0 0 1 -4,4 h-6 a4,4 0 0 1 -4,-4 v-8 h-11 a4,4 0 0 1 -4,-4 v-6 a4,4 0 0 1 4,-4 Z M30,-16 a8.5,8.5 0 1 0 17,0 a8.5,8.5 0 1 0 -17,0 Z M46,3 a8.5,8.5 0 1 0 17,0 a8.5,8.5 0 1 0 -17,0 Z "/></g><g transform="rotate(300,512,512) translate(512,252) rotate(-306) scale(0.92)"><g transform="translate(0,-3.5)" opacity="0.45"><path fill-rule="evenodd" fill="#8C2711" d="M-25,-46 a25,25 0 0 1 50,0 v40 a25,25 0 0 1 -50,0 Z M-14,-54 h28 a3.5,3.5 0 0 1 3.5,3.5 v0 a3.5,3.5 0 0 1 -3.5,3.5 h-28 a3.5,3.5 0 0 1 -3.5,-3.5 v0 a3.5,3.5 0 0 1 3.5,-3.5 Z M-14,-38 h28 a3.5,3.5 0 0 1 3.5,3.5 v0 a3.5,3.5 0 0 1 -3.5,3.5 h-28 a3.5,3.5 0 0 1 -3.5,-3.5 v0 a3.5,3.5 0 0 1 3.5,-3.5 Z M-14,-22 h28 a3.5,3.5 0 0 1 3.5,3.5 v0 a3.5,3.5 0 0 1 -3.5,3.5 h-28 a3.5,3.5 0 0 1 -3.5,-3.5 v0 a3.5,3.5 0 0 1 3.5,-3.5 Z "/><path fill="none" stroke="#8C2711" stroke-width="13" stroke-linecap="round" d="M-46,-8 C-46,30 46,30 46,-8"/><path fill="none" stroke="#8C2711" stroke-width="13" stroke-linecap="round" d="M0,29 L0,52 M-27,60 L27,60"/></g><path fill-rule="evenodd" fill="#EC9D86" d="M-25,-46 a25,25 0 0 1 50,0 v40 a25,25 0 0 1 -50,0 Z M-14,-54 h28 a3.5,3.5 0 0 1 3.5,3.5 v0 a3.5,3.5 0 0 1 -3.5,3.5 h-28 a3.5,3.5 0 0 1 -3.5,-3.5 v0 a3.5,3.5 0 0 1 3.5,-3.5 Z M-14,-38 h28 a3.5,3.5 0 0 1 3.5,3.5 v0 a3.5,3.5 0 0 1 -3.5,3.5 h-28 a3.5,3.5 0 0 1 -3.5,-3.5 v0 a3.5,3.5 0 0 1 3.5,-3.5 Z M-14,-22 h28 a3.5,3.5 0 0 1 3.5,3.5 v0 a3.5,3.5 0 0 1 -3.5,3.5 h-28 a3.5,3.5 0 0 1 -3.5,-3.5 v0 a3.5,3.5 0 0 1 3.5,-3.5 Z "/><path fill="none" stroke="#EC9D86" stroke-width="13" stroke-linecap="round" d="M-46,-8 C-46,30 46,30 46,-8"/><path fill="none" stroke="#EC9D86" stroke-width="13" stroke-linecap="round" d="M0,29 L0,52 M-27,60 L27,60"/></g></svg>