<svg xmlns="http://www.w3.org/2000/svg" width="1024" height="1024" viewBox="0 0 1024 1024"><defs><linearGradient id="bgc" x1="0" y1="0" x2="1" y2="1"><stop offset="0" stop-color="#31343F"/><stop offset="1" stop-color="#181A22"/></linearGradient><linearGradient id="tf" x1="0" y1="0" x2="0" y2="1024" gradientUnits="userSpaceOnUse"><stop offset="0" stop-color="#fff" stop-opacity="0.9"/><stop offset="0.58" stop-color="#fff" stop-opacity="0"/></linearGradient><mask id="topfade" maskUnits="userSpaceOnUse" x="0" y="0" width="1024" height="1024"><rect width="1024" height="1024" fill="url(#tf)"/></mask><linearGradient id="sheenG" x1="0" y1="40" x2="0" y2="620" gradientUnits="userSpaceOnUse"><stop offset="0" stop-color="#fff" stop-opacity="0.30"/><stop offset="1" stop-color="#fff" stop-opacity="0"/></linearGradient><clipPath id="sqc"><rect x="32" y="32" width="960" height="960" rx="218"/></clipPath><filter id="tileshadow" x="-20%" y="-20%" width="140%" height="140%"><feDropShadow dx="0" dy="14" stdDeviation="22" flood-color="#000" flood-opacity="0.25"/></filter></defs><rect width="1024" height="1024" fill="#101116"/><g filter="url(#tileshadow)"><rect x="32" y="32" width="960" height="960" rx="218" fill="#101116"/></g><g clip-path="url(#sqc)"><rect width="1024" height="1024" fill="url(#bgc)"/><rect x="32" y="32" width="960" height="960" rx="218" fill="#FFFFFF" fill-opacity="0.07"/><rect x="40" y="40" width="944" height="944" rx="212" fill="none" stroke="#FFFFFF" stroke-opacity="0.20" stroke-width="5" mask="url(#topfade)"/><path d="M 512.0 432.0 L 422.8 344.2 L 323.6 142.2 Q 512.0 26.0 700.4 142.2 L 601.2 344.2 Z" fill="none" stroke="#FFFFFF" stroke-width="56" stroke-linejoin="round" opacity="0.32" mask="url(#topfade)"/><g opacity="0.14"><path d="M 512.0 432.0 L 422.8 344.2 L 323.6 142.2 Q 512.0 26.0 700.4 142.2 L 601.2 344.2 Z" fill="#FFFFFF" stroke="#FFFFFF" stroke-width="48" stroke-linejoin="round"/></g><path d="M 512.0 432.0 L 422.8 344.2 L 323.6 142.2 Q 512.0 26.0 700.4 142.2 L 601.2 344.2 Z" fill="none" stroke="#FFFFFF" stroke-width="56" stroke-linejoin="round" transform="rotate(60 512 512)" opacity="0.32" mask="url(#topfade)"/><g opacity="0.20"><path d="M 512.0 432.0 L 422.8 344.2 L 323.6 142.2 Q 512.0 26.0 700.4 142.2 L 601.2 344.2 Z" fill="#FFFFFF" stroke="#FFFFFF" stroke-width="48" stroke-linejoin="round" transform="rotate(60 512 512)"/></g><path d="M 512.0 432.0 L 422.8 344.2 L 323.6 142.2 Q 512.0 26.0 700.4 142.2 L 601.2 344.2 Z" fill="none" stroke="#FFFFFF" stroke-width="56" stroke-linejoin="round" transform="rotate(120 512 512)" opacity="0.32" mask="url(#topfade)"/><g opacity="0.27"><path d="M 512.0 432.0 L 422.8 344.2 L 323.6 142.2 Q 512.0 26.0 700.4 142.2 L 601.2 344.2 Z" fill="#FFFFFF" stroke="#FFFFFF" stroke-width="48" stroke-linejoin="round" transform="rotate(120 512 512)"/></g><path d="M 512.0 432.0 L 422.8 344.2 L 323.6 142.2 Q 512.0 26.0 700.4 142.2 L 601.2 344.2 Z" fill="none" stroke="#FFFFFF" stroke-width="56" stroke-linejoin="round" transform="rotate(180 512 512)" opacity="0.32" mask="url(#topfade)"/><g opacity="0.35"><path d="M 512.0 432.0 L 422.8 344.2 L 323.6 142.2 Q 512.0 26.0 700.4 142.2 L 601.2 344.2 Z" fill="#FFFFFF" stroke="#FFFFFF" stroke-width="48" stroke-linejoin="round" transform="rotate(180 512 512)"/></g><path d="M 512.0 432.0 L 422.8 344.2 L 323.6 142.2 Q 512.0 26.0 700.4 142.2 L 601.2 344.2 Z" fill="none" stroke="#FFFFFF" stroke-width="56" stroke-linejoin="round" transform="rotate(240 512 512)" opacity="0.32" mask="url(#topfade)"/><g opacity="0.44"><path d="M 512.0 432.0 L 422.8 344.2 L 323.6 142.2 Q 512.0 26.0 700.4 142.2 L 601.2 344.2 Z" fill="#FFFFFF" stroke="#FFFFFF" stroke-width="48" stroke-linejoin="round" transform="rotate(240 512 512)"/></g><path d="M 512.0 432.0 L 422.8 344.2 L 323.6 142.2 Q 512.0 26.0 700.4 142.2 L 601.2 344.2 Z" fill="none" stroke="#FFFFFF" stroke-width="56" stroke-linejoin="round" transform="rotate(300 512 512)" opacity="0.32" mask="url(#topfade)"/><g opacity="0.55"><path d="M 512.0 432.0 L 422.8 344.2 L 323.6 142.2 Q 512.0 26.0 700.4 142.2 L 601.2 344.2 Z" fill="#FFFFFF" stroke="#FFFFFF" stroke-width="48" stroke-linejoin="round" transform="rotate(300 512 512)"/></g><g transform="translate(512.0 244.0) scale(1.0)" opacity="0.62"><rect x="-52" y="-52" width="104" height="104" rx="34" fill="none" stroke="#FFFFFF" stroke-width="17"/></g><g transform="translate(744.1 378.0) scale(1.0)" opacity="0.62"><g fill="none" stroke="#FFFFFF" stroke-width="15" stroke-linecap="round" stroke-linejoin="round"><path d="M 0 -26 C -14 -42 -44 -46 -60 -38 L -60 30 C -44 22 -14 26 0 40"/><path d="M 0 -26 C 14 -42 44 -46 60 -38 L 60 30 C 44 22 14 26 0 40"/><path d="M 0 -26 L 0 40"/></g></g><g transform="translate(744.1 646.0) scale(1.0)" opacity="0.62"><g fill="none" stroke="#FFFFFF" stroke-width="15" stroke-linecap="round"><rect x="-56" y="-44" width="112" height="88" rx="12"/><line x1="-32" y1="-44" x2="-32" y2="44"/><line x1="32" y1="-44" x2="32" y2="44"/><line x1="-50" y1="-22" x2="-38" y2="-22"/><line x1="-50" y1="0" x2="-38" y2="0"/><line x1="-50" y1="22" x2="-38" y2="22"/><line x1="38" y1="-22" x2="50" y2="-22"/><line x1="38" y1="0" x2="50" y2="0"/><line x1="38" y1="22" x2="50" y2="22"/></g></g><g transform="translate(512.0 780.0) scale(1.0)" opacity="0.62"><g fill="none" stroke="#FFFFFF" stroke-width="15" stroke-linecap="round" stroke-linejoin="round"><rect x="-55" y="-26" width="110" height="78" rx="16"/><line x1="0" y1="-26" x2="-26" y2="-56"/><line x1="0" y1="-26" x2="26" y2="-56"/></g></g><g transform="translate(279.9 646.0) scale(1.0)" opacity="0.62"><g fill="none" stroke="#FFFFFF" stroke-width="15" stroke-linecap="round"><rect x="-58" y="-32" width="116" height="64" rx="32"/><line x1="-44" y1="0" x2="-16" y2="0"/><line x1="-30" y1="-14" x2="-30" y2="14"/><circle cx="26" cy="-9" r="8" fill="#FFFFFF" stroke="none"/><circle cx="42" cy="7" r="8" fill="#FFFFFF" stroke="none"/></g></g><g transform="translate(279.9 378.0) scale(1.0)" opacity="0.62"><g fill="none" stroke="#FFFFFF" stroke-width="15" stroke-linecap="round"><rect x="-18" y="-56" width="36" height="66" rx="18"/><path d="M -34 -12 C -34 30 34 30 34 -12" fill="none"/><line x1="0" y1="20" x2="0" y2="44"/><line x1="-20" y1="46" x2="20" y2="46"/></g></g></g></svg>