<svg xmlns="http://www.w3.org/2000/svg" width="1024" height="1024" viewBox="0 0 1024 1024"><defs><linearGradient id="wp" x1="0" y1="0" x2="1" y2="1"><stop offset="0" stop-color="#1B2033"/><stop offset="0.55" stop-color="#2A2137"/><stop offset="1" stop-color="#12151F"/></linearGradient><filter id="blob" x="-60%" y="-60%" width="220%" height="220%"><feGaussianBlur stdDeviation="70"/></filter><filter id="ctshadow" x="-30%" y="-30%" width="160%" height="160%"><feDropShadow dx="0" dy="8" stdDeviation="12" flood-color="#000" flood-opacity="0.35"/></filter><radialGradient id="bgdc" cx="0.5" cy="0.42" r="0.8"><stop offset="0" stop-color="#3A2118"/><stop offset="1" stop-color="#1C0F0A"/></radialGradient><linearGradient id="tf" x1="0" y1="0" x2="0" y2="1024" gradientUnits="userSpaceOnUse"><stop offset="0" stop-color="#fff" stop-opacity="0.85"/><stop offset="0.6" stop-color="#fff" stop-opacity="0"/></linearGradient><mask id="topfade" maskUnits="userSpaceOnUse" x="0" y="0" width="1024" height="1024"><rect width="1024" height="1024" fill="url(#tf)"/></mask><linearGradient id="sheenG" x1="0" y1="40" x2="0" y2="620" gradientUnits="userSpaceOnUse"><stop offset="0" stop-color="#fff" stop-opacity="0.30"/><stop offset="1" stop-color="#fff" stop-opacity="0"/></linearGradient><clipPath id="sqdc"><rect x="32" y="32" width="960" height="960" rx="218"/></clipPath><filter id="glowblur" x="-30%" y="-30%" width="160%" height="160%"><feGaussianBlur stdDeviation="16"/></filter><filter id="petshadowd" x="-20%" y="-20%" width="140%" height="140%"><feDropShadow dx="0" dy="12" stdDeviation="18" flood-color="#000000" flood-opacity="0.55"/></filter></defs><rect width="1024" height="1024" fill="url(#wp)"/><g filter="url(#blob)"><circle cx="230" cy="260" r="260" fill="#3E2E56" opacity="0.55"/><circle cx="820" cy="720" r="300" fill="#233B54" opacity="0.5"/><circle cx="700" cy="180" r="180" fill="#54312E" opacity="0.35"/></g><g filter="url(#ctshadow)"><rect x="161" y="292" width="180" height="180" rx="41" fill="#FFFFFF" fill-opacity="0.1"/></g><rect x="163" y="294" width="176" height="176" rx="40" fill="none" stroke="#FFFFFF" stroke-opacity="0.07" stroke-width="2.5" mask="url(#topfade)"/><g filter="url(#ctshadow)"><rect x="683" y="292" width="180" height="180" rx="41" fill="#FFFFFF" fill-opacity="0.1"/></g><rect x="685" y="294" width="176" height="176" rx="40" fill="none" stroke="#FFFFFF" stroke-opacity="0.07" stroke-width="2.5" mask="url(#topfade)"/><g filter="url(#ctshadow)"><rect x="161" y="553" width="180" height="180" rx="41" fill="#FFFFFF" fill-opacity="0.1"/></g><rect x="163" y="555" width="176" height="176" rx="40" fill="none" stroke="#FFFFFF" stroke-opacity="0.07" stroke-width="2.5" mask="url(#topfade)"/><g filter="url(#ctshadow)"><rect x="422" y="553" width="180" height="180" rx="41" fill="#FFFFFF" fill-opacity="0.1"/></g><rect x="424" y="555" width="176" height="176" rx="40" fill="none" stroke="#FFFFFF" stroke-opacity="0.07" stroke-width="2.5" mask="url(#topfade)"/><g filter="url(#ctshadow)"><rect x="683" y="553" width="180" height="180" rx="41" fill="#FFFFFF" fill-opacity="0.1"/></g><rect x="685" y="555" width="176" height="176" rx="40" fill="none" stroke="#FFFFFF" stroke-opacity="0.07" stroke-width="2.5" mask="url(#topfade)"/><g filter="url(#ctshadow)"><g transform="translate(422 292) scale(0.17578)"><g clip-path="url(#sqdc)"><rect width="1024" height="1024" fill="url(#bgdc)"/><g filter="url(#petshadowd)"><path d="M 512.0 432.0 L 422.8 344.2 L 323.6 142.2 Q 512.0 26.0 700.4 142.2 L 601.2 344.2 Z" fill="none" stroke="#FF9E6E" stroke-width="56" stroke-linejoin="round" opacity="0.15" filter="url(#glowblur)"/><path d="M 512.0 432.0 L 422.8 344.2 L 323.6 142.2 Q 512.0 26.0 700.4 142.2 L 601.2 344.2 Z" fill="none" stroke="#FF9E6E" stroke-width="56" stroke-linejoin="round" transform="rotate(60 512 512)" opacity="0.15" filter="url(#glowblur)"/><path d="M 512.0 432.0 L 422.8 344.2 L 323.6 142.2 Q 512.0 26.0 700.4 142.2 L 601.2 344.2 Z" fill="none" stroke="#FF9E6E" stroke-width="56" stroke-linejoin="round" transform="rotate(120 512 512)" opacity="0.15" filter="url(#glowblur)"/><path d="M 512.0 432.0 L 422.8 344.2 L 323.6 142.2 Q 512.0 26.0 700.4 142.2 L 601.2 344.2 Z" fill="none" stroke="#FF9E6E" stroke-width="56" stroke-linejoin="round" transform="rotate(180 512 512)" opacity="0.15" filter="url(#glowblur)"/><path d="M 512.0 432.0 L 422.8 344.2 L 323.6 142.2 Q 512.0 26.0 700.4 142.2 L 601.2 344.2 Z" fill="none" stroke="#FF9E6E" stroke-width="56" stroke-linejoin="round" transform="rotate(240 512 512)" opacity="0.15" filter="url(#glowblur)"/><path d="M 512.0 432.0 L 422.8 344.2 L 323.6 142.2 Q 512.0 26.0 700.4 142.2 L 601.2 344.2 Z" fill="none" stroke="#FF9E6E" stroke-width="56" stroke-linejoin="round" transform="rotate(300 512 512)" opacity="0.15" filter="url(#glowblur)"/><path d="M 512.0 432.0 L 422.8 344.2 L 323.6 142.2 Q 512.0 26.0 700.4 142.2 L 601.2 344.2 Z" fill="none" stroke="#F2AF89" stroke-width="53" stroke-linejoin="round"/><path d="M 512.0 432.0 L 422.8 344.2 L 323.6 142.2 Q 512.0 26.0 700.4 142.2 L 601.2 344.2 Z" fill="none" stroke="#FFFFFF" stroke-width="53" stroke-linejoin="round" opacity="0.6" mask="url(#topfade)"/><path d="M 512.0 432.0 L 422.8 344.2 L 323.6 142.2 Q 512.0 26.0 700.4 142.2 L 601.2 344.2 Z" fill="#F2AF89" stroke="#F2AF89" stroke-width="43" stroke-linejoin="round"/><path d="M 512.0 432.0 L 422.8 344.2 L 323.6 142.2 Q 512.0 26.0 700.4 142.2 L 601.2 344.2 Z" fill="none" stroke="#EE9569" stroke-width="53" stroke-linejoin="round" transform="rotate(60 512 512)"/><path d="M 512.0 432.0 L 422.8 344.2 L 323.6 142.2 Q 512.0 26.0 700.4 142.2 L 601.2 344.2 Z" fill="none" stroke="#FFFFFF" stroke-width="53" stroke-linejoin="round" transform="rotate(60 512 512)" opacity="0.6" mask="url(#topfade)"/><path d="M 512.0 432.0 L 422.8 344.2 L 323.6 142.2 Q 512.0 26.0 700.4 142.2 L 601.2 344.2 Z" fill="#EE9569" stroke="#EE9569" stroke-width="43" stroke-linejoin="round" transform="rotate(60 512 512)"/><path d="M 512.0 432.0 L 422.8 344.2 L 323.6 142.2 Q 512.0 26.0 700.4 142.2 L 601.2 344.2 Z" fill="none" stroke="#E67A4E" stroke-width="53" stroke-linejoin="round" transform="rotate(120 512 512)"/><path d="M 512.0 432.0 L 422.8 344.2 L 323.6 142.2 Q 512.0 26.0 700.4 142.2 L 601.2 344.2 Z" fill="none" stroke="#FFFFFF" stroke-width="53" stroke-linejoin="round" transform="rotate(120 512 512)" opacity="0.6" mask="url(#topfade)"/><path d="M 512.0 432.0 L 422.8 344.2 L 323.6 142.2 Q 512.0 26.0 700.4 142.2 L 601.2 344.2 Z" fill="#E67A4E" stroke="#E67A4E" stroke-width="43" stroke-linejoin="round" transform="rotate(120 512 512)"/><path d="M 512.0 432.0 L 422.8 344.2 L 323.6 142.2 Q 512.0 26.0 700.4 142.2 L 601.2 344.2 Z" fill="none" stroke="#D95F38" stroke-width="53" stroke-linejoin="round" transform="rotate(180 512 512)"/><path d="M 512.0 432.0 L 422.8 344.2 L 323.6 142.2 Q 512.0 26.0 700.4 142.2 L 601.2 344.2 Z" fill="none" stroke="#FFFFFF" stroke-width="53" stroke-linejoin="round" transform="rotate(180 512 512)" opacity="0.6" mask="url(#topfade)"/><path d="M 512.0 432.0 L 422.8 344.2 L 323.6 142.2 Q 512.0 26.0 700.4 142.2 L 601.2 344.2 Z" fill="#D95F38" stroke="#D95F38" stroke-width="43" stroke-linejoin="round" transform="rotate(180 512 512)"/><path d="M 512.0 432.0 L 422.8 344.2 L 323.6 142.2 Q 512.0 26.0 700.4 142.2 L 601.2 344.2 Z" fill="none" stroke="#C64828" stroke-width="53" stroke-linejoin="round" transform="rotate(240 512 512)"/><path d="M 512.0 432.0 L 422.8 344.2 L 323.6 142.2 Q 512.0 26.0 700.4 142.2 L 601.2 344.2 Z" fill="none" stroke="#FFFFFF" stroke-width="53" stroke-linejoin="round" transform="rotate(240 512 512)" opacity="0.6" mask="url(#topfade)"/><path d="M 512.0 432.0 L 422.8 344.2 L 323.6 142.2 Q 512.0 26.0 700.4 142.2 L 601.2 344.2 Z" fill="#C64828" stroke="#C64828" stroke-width="43" stroke-linejoin="round" transform="rotate(240 512 512)"/><path d="M 512.0 432.0 L 422.8 344.2 L 323.6 142.2 Q 512.0 26.0 700.4 142.2 L 601.2 344.2 Z" fill="none" stroke="#A6371C" stroke-width="53" stroke-linejoin="round" transform="rotate(300 512 512)"/><path d="M 512.0 432.0 L 422.8 344.2 L 323.6 142.2 Q 512.0 26.0 700.4 142.2 L 601.2 344.2 Z" fill="none" stroke="#FFFFFF" stroke-width="53" stroke-linejoin="round" transform="rotate(300 512 512)" opacity="0.6" mask="url(#topfade)"/><path d="M 512.0 432.0 L 422.8 344.2 L 323.6 142.2 Q 512.0 26.0 700.4 142.2 L 601.2 344.2 Z" fill="#A6371C" stroke="#A6371C" stroke-width="43" stroke-linejoin="round" transform="rotate(300 512 512)"/><path d="M 512.0 432.0 L 422.8 344.2 L 323.6 142.2 Q 512.0 26.0 700.4 142.2 L 601.2 344.2 Z" fill="url(#sheenG)" stroke="url(#sheenG)" stroke-width="43" stroke-linejoin="round"/><path d="M 512.0 432.0 L 422.8 344.2 L 323.6 142.2 Q 512.0 26.0 700.4 142.2 L 601.2 344.2 Z" fill="url(#sheenG)" stroke="url(#sheenG)" stroke-width="43" stroke-linejoin="round" transform="rotate(60 512 512)"/><path d="M 512.0 432.0 L 422.8 344.2 L 323.6 142.2 Q 512.0 26.0 700.4 142.2 L 601.2 344.2 Z" fill="url(#sheenG)" stroke="url(#sheenG)" stroke-width="43" stroke-linejoin="round" transform="rotate(120 512 512)"/><path d="M 512.0 432.0 L 422.8 344.2 L 323.6 142.2 Q 512.0 26.0 700.4 142.2 L 601.2 344.2 Z" fill="url(#sheenG)" stroke="url(#sheenG)" stroke-width="43" stroke-linejoin="round" transform="rotate(180 512 512)"/><path d="M 512.0 432.0 L 422.8 344.2 L 323.6 142.2 Q 512.0 26.0 700.4 142.2 L 601.2 344.2 Z" fill="url(#sheenG)" stroke="url(#sheenG)" stroke-width="43" stroke-linejoin="round" transform="rotate(240 512 512)"/><path d="M 512.0 432.0 L 422.8 344.2 L 323.6 142.2 Q 512.0 26.0 700.4 142.2 L 601.2 344.2 Z" fill="url(#sheenG)" stroke="url(#sheenG)" stroke-width="43" stroke-linejoin="round" transform="rotate(300 512 512)"/></g><g transform="translate(512.0 244.0) scale(1.0)"><rect x="-52" y="-52" width="104" height="104" rx="34" fill="none" stroke="#F9DBCA" stroke-width="17"/></g><g transform="translate(744.1 378.0) scale(1.0)"><g fill="none" stroke="#F7CFBC" stroke-width="15" stroke-linecap="round" stroke-linejoin="round"><path d="M 0 -26 C -14 -42 -44 -46 -60 -38 L -60 30 C -44 22 -14 26 0 40"/><path d="M 0 -26 C 14 -42 44 -46 60 -38 L 60 30 C 44 22 14 26 0 40"/><path d="M 0 -26 L 0 40"/></g></g><g transform="translate(744.1 646.0) scale(1.0)"><g fill="none" stroke="#F4C3AF" stroke-width="15" stroke-linecap="round"><rect x="-56" y="-44" width="112" height="88" rx="12"/><line x1="-32" y1="-44" x2="-32" y2="44"/><line x1="32" y1="-44" x2="32" y2="44"/><line x1="-50" y1="-22" x2="-38" y2="-22"/><line x1="-50" y1="0" x2="-38" y2="0"/><line x1="-50" y1="22" x2="-38" y2="22"/><line x1="38" y1="-22" x2="50" y2="-22"/><line x1="38" y1="0" x2="50" y2="0"/><line x1="38" y1="22" x2="50" y2="22"/></g></g><g transform="translate(512.0 780.0) scale(1.0)"><g fill="none" stroke="#EEB7A5" stroke-width="15" stroke-linecap="round" stroke-linejoin="round"><rect x="-55" y="-26" width="110" height="78" rx="16"/><line x1="0" y1="-26" x2="-26" y2="-56"/><line x1="0" y1="-26" x2="26" y2="-56"/></g></g><g transform="translate(279.9 646.0) scale(1.0)"><g fill="none" stroke="#E5AD9E" stroke-width="15" stroke-linecap="round"><rect x="-58" y="-32" width="116" height="64" rx="32"/><line x1="-44" y1="0" x2="-16" y2="0"/><line x1="-30" y1="-14" x2="-30" y2="14"/><circle cx="26" cy="-9" r="8" fill="#E5AD9E" stroke="none"/><circle cx="42" cy="7" r="8" fill="#E5AD9E" stroke="none"/></g></g><g transform="translate(279.9 378.0) scale(1.0)"><g fill="none" stroke="#D7A599" stroke-width="15" stroke-linecap="round"><rect x="-18" y="-56" width="36" height="66" rx="18"/><path d="M -34 -12 C -34 30 34 30 34 -12" fill="none"/><line x1="0" y1="20" x2="0" y2="44"/><line x1="-20" y1="46" x2="20" y2="46"/></g></g></g></g></g></svg>