<svg xmlns="http://www.w3.org/2000/svg" width="1024" height="1024" viewBox="0 0 1024 1024"><g transform="rotate(0,512,512)"><path d="M534,420 L672,322 L707,122 L292,142 L367,287 Z" fill="#FFD9C7" stroke="#FFD9C7" stroke-width="56" stroke-linejoin="round"/></g><g transform="rotate(60,512,512)"><path d="M534,420 L672,322 L707,122 L292,142 L367,287 Z" fill="#FFB59B" stroke="#FFB59B" stroke-width="56" stroke-linejoin="round"/></g><g transform="rotate(120,512,512)"><path d="M534,420 L672,322 L707,122 L292,142 L367,287 Z" fill="#FF9270" stroke="#FF9270" stroke-width="56" stroke-linejoin="round"/></g><g transform="rotate(180,512,512)"><path d="M534,420 L672,322 L707,122 L292,142 L367,287 Z" fill="#F76F4E" stroke="#F76F4E" stroke-width="56" stroke-linejoin="round"/></g><g transform="rotate(240,512,512)"><path d="M534,420 L672,322 L707,122 L292,142 L367,287 Z" fill="#E14F33" stroke="#E14F33" stroke-width="56" stroke-linejoin="round"/></g><g transform="rotate(300,512,512)"><path d="M534,420 L672,322 L707,122 L292,142 L367,287 Z" fill="#B93A24" stroke="#B93A24" stroke-width="56" stroke-linejoin="round"/></g></svg>