<svg xmlns="http://www.w3.org/2000/svg" width="1024" height="1024" viewBox="0 0 1024 1024">
  <rect width="1024" height="1024" fill="#F6EDF0"/>
  <defs>

  <g id="g-book">
    <path fill="currentColor" fill-rule="evenodd" d="M 0 -34
      C -20 -50 -60 -55 -86 -46 L -86 38 C -60 29 -20 32 0 47
      C 20 32 60 29 86 38 L 86 -46 C 60 -55 20 -50 0 -34 Z
      M -13 -20 C -27 -31 -50 -36 -68 -33 L -68 21 C -50 18 -27 21 -13 29 Z
      M 13 -20 C 27 -31 50 -36 68 -33 L 68 21 C 50 18 27 21 13 29 Z"/>
  </g>

  <g id="g-film">
    <path fill="currentColor" fill-rule="evenodd" d="M -54 -78
      L 54 -78 Q 66 -78 66 -66 L 66 66 Q 66 78 54 78 L -54 78 Q -66 78 -66 66 L -66 -66 Q -66 -78 -54 -78 Z
      M -28 -46 L 28 -46 Q 32 -46 32 -42 L 32 42 Q 32 46 28 46 L -28 46 Q -32 46 -32 42 L -32 -42 Q -32 -46 -28 -46 Z
      M -55 -66 h 12 q 3 0 3 3 v 10 q 0 3 -3 3 h -12 q -3 0 -3 -3 v -10 q 0 -3 3 -3 Z
      M -55 -36 h 12 q 3 0 3 3 v 10 q 0 3 -3 3 h -12 q -3 0 -3 -3 v -10 q 0 -3 3 -3 Z
      M -55 -6  h 12 q 3 0 3 3 v 10 q 0 3 -3 3 h -12 q -3 0 -3 -3 v -10 q 0 -3 3 -3 Z
      M -55 24  h 12 q 3 0 3 3 v 10 q 0 3 -3 3 h -12 q -3 0 -3 -3 v -10 q 0 -3 3 -3 Z
      M -55 54  h 12 q 3 0 3 3 v 10 q 0 3 -3 3 h -12 q -3 0 -3 -3 v -10 q 0 -3 3 -3 Z
      M 43 -66 h 12 q 3 0 3 3 v 10 q 0 3 -3 3 h -12 q -3 0 -3 -3 v -10 q 0 -3 3 -3 Z
      M 43 -36 h 12 q 3 0 3 3 v 10 q 0 3 -3 3 h -12 q -3 0 -3 -3 v -10 q 0 -3 3 -3 Z
      M 43 -6  h 12 q 3 0 3 3 v 10 q 0 3 -3 3 h -12 q -3 0 -3 -3 v -10 q 0 -3 3 -3 Z
      M 43 24  h 12 q 3 0 3 3 v 10 q 0 3 -3 3 h -12 q -3 0 -3 -3 v -10 q 0 -3 3 -3 Z
      M 43 54  h 12 q 3 0 3 3 v 10 q 0 3 -3 3 h -12 q -3 0 -3 -3 v -10 q 0 -3 3 -3 Z"/>
  </g>

  <g id="g-tv">
    <path fill="none" stroke="currentColor" stroke-width="13" stroke-linecap="round"
          d="M 0 -30 L -30 -64 M 0 -30 L 28 -64"/>
    <path fill="currentColor" fill-rule="evenodd" d="M -68 -28
      L 68 -28 Q 84 -28 84 -12 L 84 50 Q 84 66 68 66 L -68 66 Q -84 66 -84 50 L -84 -12 Q -84 -28 -68 -28 Z
      M -62 -12 L 34 -12 Q 40 -12 40 -6 L 40 44 Q 40 50 34 50 L -62 50 Q -68 50 -68 44 L -68 -6 Q -68 -12 -62 -12 Z
      M 62 -4 a 7 7 0 1 0 0.0001 0 Z
      M 62 16 a 7 7 0 1 0 0.0001 0 Z
      M 62 36 a 7 7 0 1 0 0.0001 0 Z"/>
  </g>

  <g id="g-pad">
    <path fill="currentColor" fill-rule="evenodd" d="M -44 -40
      L 44 -40 Q 84 -40 84 0 Q 84 40 44 40 L -44 40 Q -84 40 -84 0 Q -84 -40 -44 -40 Z
      M -51 -21 L -37 -21 L -37 -7 L -23 -7 L -23 7 L -37 7 L -37 21 L -51 21 L -51 7 L -65 7 L -65 -7 L -51 -7 Z
      M 44 -22 a 8 8 0 1 0 0.0001 0 Z
      M 60 -3 a 8 8 0 1 0 0.0001 0 Z
      M 28 -3 a 8 8 0 1 0 0.0001 0 Z
      M 44 16 a 8 8 0 1 0 0.0001 0 Z"/>
  </g>

  <g id="g-mic">
    <path fill="none" stroke="currentColor" stroke-width="13" stroke-linecap="round"
          d="M -46 -34 A 46 46 0 0 0 46 -34 M 0 11 L 0 44 M -27 50 L 27 50"/>
    <path fill="currentColor" fill-rule="evenodd" d="M -26 -50
      Q -26 -76 0 -76 Q 26 -76 26 -50 L 26 -30 Q 26 -4 0 -4 Q -26 -4 -26 -30 Z
      M -14 -56 L 14 -56 Q 18 -56 18 -52 Q 18 -48 14 -48 L -14 -48 Q -18 -48 -18 -52 Q -18 -56 -14 -56 Z
      M -14 -40 L 14 -40 Q 18 -40 18 -36 Q 18 -32 14 -32 L -14 -32 Q -18 -32 -18 -36 Q -18 -40 -14 -40 Z"/>
  </g>
  </defs>
  <path d="M 512.0 418.0 L 392.9 249.3 L 394.4 61.2 L 734.1 115.0 L 677.4 294.3 Z" fill="#E5BAD0" stroke="#E5BAD0" stroke-width="44" stroke-linejoin="round" transform="rotate(0 512 512)"/>
  <path d="M 512.0 418.0 L 392.9 249.3 L 394.4 61.2 L 734.1 115.0 L 677.4 294.3 Z" fill="#D496BE" stroke="#D496BE" stroke-width="44" stroke-linejoin="round" transform="rotate(60 512 512)"/>
  <path d="M 512.0 418.0 L 392.9 249.3 L 394.4 61.2 L 734.1 115.0 L 677.4 294.3 Z" fill="#BF74A9" stroke="#BF74A9" stroke-width="44" stroke-linejoin="round" transform="rotate(120 512 512)"/>
  <path d="M 512.0 418.0 L 392.9 249.3 L 394.4 61.2 L 734.1 115.0 L 677.4 294.3 Z" fill="#A35590" stroke="#A35590" stroke-width="44" stroke-linejoin="round" transform="rotate(180 512 512)"/>
  <path d="M 512.0 418.0 L 392.9 249.3 L 394.4 61.2 L 734.1 115.0 L 677.4 294.3 Z" fill="#823C76" stroke="#823C76" stroke-width="44" stroke-linejoin="round" transform="rotate(240 512 512)"/>
  <path d="M 512.0 418.0 L 392.9 249.3 L 394.4 61.2 L 734.1 115.0 L 677.4 294.3 Z" fill="#5D2A5C" stroke="#5D2A5C" stroke-width="44" stroke-linejoin="round" transform="rotate(300 512 512)"/>
  <g transform="rotate(60 512 512) translate(548.9 184.9) rotate(-55) scale(1.0)">
    <use href="#g-film" y="3" color="#DDADCC"/>
    <use href="#g-film" y="-3" color="#946985"/>
    <use href="#g-film" color="#B882A5"/>
  </g>
  <g transform="rotate(120 512 512) translate(548.9 184.9) rotate(-126) scale(1.0)">
    <use href="#g-mic" y="3" color="#CD93BC"/>
    <use href="#g-mic" y="-3" color="#865176"/>
    <use href="#g-mic" color="#A66593"/>
  </g>
  <g transform="rotate(180 512 512) translate(548.9 184.9) rotate(-176) scale(1.0)">
    <use href="#g-pad" y="3" color="#B77AA8"/>
    <use href="#g-pad" y="-3" color="#723C65"/>
    <use href="#g-pad" color="#8E4A7D"/>
  </g>
  <g transform="rotate(240 512 512) translate(548.9 184.9) rotate(-245) scale(1.0)">
    <use href="#g-tv" y="3" color="#9E6794"/>
    <use href="#g-tv" y="-3" color="#5B2A53"/>
    <use href="#g-tv" color="#713467"/>
  </g>
  <g transform="rotate(300 512 512) translate(548.9 184.9) rotate(-294) scale(1.0)">
    <use href="#g-book" y="3" color="#815980"/>
    <use href="#g-book" y="-3" color="#411D40"/>
    <use href="#g-book" color="#512550"/>
  </g>
</svg>
