<svg xmlns="http://www.w3.org/2000/svg" width="1024" height="1024" viewBox="0 0 1024 1024"><g transform="translate(512.0 244.0) scale(1.0)"><rect x="-52" y="-52" width="104" height="104" rx="34" fill="none" stroke="#F9DBCA" stroke-width="17"/></g><g transform="translate(744.1 378.0) scale(1.0)"><g fill="none" stroke="#F7CFBC" stroke-width="15" stroke-linecap="round" stroke-linejoin="round"><path d="M 0 -26 C -14 -42 -44 -46 -60 -38 L -60 30 C -44 22 -14 26 0 40"/><path d="M 0 -26 C 14 -42 44 -46 60 -38 L 60 30 C 44 22 14 26 0 40"/><path d="M 0 -26 L 0 40"/></g></g><g transform="translate(744.1 646.0) scale(1.0)"><g fill="none" stroke="#F4C3AF" stroke-width="15" stroke-linecap="round"><rect x="-56" y="-44" width="112" height="88" rx="12"/><line x1="-32" y1="-44" x2="-32" y2="44"/><line x1="32" y1="-44" x2="32" y2="44"/><line x1="-50" y1="-22" x2="-38" y2="-22"/><line x1="-50" y1="0" x2="-38" y2="0"/><line x1="-50" y1="22" x2="-38" y2="22"/><line x1="38" y1="-22" x2="50" y2="-22"/><line x1="38" y1="0" x2="50" y2="0"/><line x1="38" y1="22" x2="50" y2="22"/></g></g><g transform="translate(512.0 780.0) scale(1.0)"><g fill="none" stroke="#EEB7A5" stroke-width="15" stroke-linecap="round" stroke-linejoin="round"><rect x="-55" y="-26" width="110" height="78" rx="16"/><line x1="0" y1="-26" x2="-26" y2="-56"/><line x1="0" y1="-26" x2="26" y2="-56"/></g></g><g transform="translate(279.9 646.0) scale(1.0)"><g fill="none" stroke="#E5AD9E" stroke-width="15" stroke-linecap="round"><rect x="-58" y="-32" width="116" height="64" rx="32"/><line x1="-44" y1="0" x2="-16" y2="0"/><line x1="-30" y1="-14" x2="-30" y2="14"/><circle cx="26" cy="-9" r="8" fill="#E5AD9E" stroke="none"/><circle cx="42" cy="7" r="8" fill="#E5AD9E" stroke="none"/></g></g><g transform="translate(279.9 378.0) scale(1.0)"><g fill="none" stroke="#D7A599" stroke-width="15" stroke-linecap="round"><rect x="-18" y="-56" width="36" height="66" rx="18"/><path d="M -34 -12 C -34 30 34 30 34 -12" fill="none"/><line x1="0" y1="20" x2="0" y2="44"/><line x1="-20" y1="46" x2="20" y2="46"/></g></g></svg>