<svg xmlns="http://www.w3.org/2000/svg" width="1024" height="1024" viewBox="0 0 1024 1024"><path d="M 512.0 432.0 L 422.8 344.2 L 323.6 142.2 Q 512.0 26.0 700.4 142.2 L 601.2 344.2 Z" fill="#F2AF89" stroke="#F2AF89" stroke-width="48" stroke-linejoin="round"/><path d="M 512.0 432.0 L 422.8 344.2 L 323.6 142.2 Q 512.0 26.0 700.4 142.2 L 601.2 344.2 Z" fill="#EE9569" stroke="#EE9569" stroke-width="48" stroke-linejoin="round" transform="rotate(60 512 512)"/><path d="M 512.0 432.0 L 422.8 344.2 L 323.6 142.2 Q 512.0 26.0 700.4 142.2 L 601.2 344.2 Z" fill="#E67A4E" stroke="#E67A4E" stroke-width="48" stroke-linejoin="round" transform="rotate(120 512 512)"/><path d="M 512.0 432.0 L 422.8 344.2 L 323.6 142.2 Q 512.0 26.0 700.4 142.2 L 601.2 344.2 Z" fill="#D95F38" stroke="#D95F38" stroke-width="48" stroke-linejoin="round" transform="rotate(180 512 512)"/><path d="M 512.0 432.0 L 422.8 344.2 L 323.6 142.2 Q 512.0 26.0 700.4 142.2 L 601.2 344.2 Z" fill="#C64828" stroke="#C64828" stroke-width="48" stroke-linejoin="round" transform="rotate(240 512 512)"/><path d="M 512.0 432.0 L 422.8 344.2 L 323.6 142.2 Q 512.0 26.0 700.4 142.2 L 601.2 344.2 Z" fill="#A6371C" stroke="#A6371C" stroke-width="48" stroke-linejoin="round" transform="rotate(300 512 512)"/></svg>