<svg xmlns="http://www.w3.org/2000/svg" width="1024" height="1024" viewBox="0 0 1024 1024">
  <rect width="1024" height="1024" fill="#F6E7D3"/>
  <defs>

  <g id="g-book">
    <path fill="currentColor" fill-rule="evenodd" d="M 0 -34
      C -20 -50 -60 -55 -86 -46 L -86 38 C -60 29 -20 32 0 47
      C 20 32 60 29 86 38 L 86 -46 C 60 -55 20 -50 0 -34 Z
      M -13 -20 C -27 -31 -50 -36 -68 -33 L -68 21 C -50 18 -27 21 -13 29 Z
      M 13 -20 C 27 -31 50 -36 68 -33 L 68 21 C 50 18 27 21 13 29 Z"/>
  </g>

  <g id="g-film">
    <path fill="currentColor" fill-rule="evenodd" d="M -54 -78
      L 54 -78 Q 66 -78 66 -66 L 66 66 Q 66 78 54 78 L -54 78 Q -66 78 -66 66 L -66 -66 Q -66 -78 -54 -78 Z
      M -28 -46 L 28 -46 Q 32 -46 32 -42 L 32 42 Q 32 46 28 46 L -28 46 Q -32 46 -32 42 L -32 -42 Q -32 -46 -28 -46 Z
      M -55 -66 h 12 q 3 0 3 3 v 10 q 0 3 -3 3 h -12 q -3 0 -3 -3 v -10 q 0 -3 3 -3 Z
      M -55 -36 h 12 q 3 0 3 3 v 10 q 0 3 -3 3 h -12 q -3 0 -3 -3 v -10 q 0 -3 3 -3 Z
      M -55 -6  h 12 q 3 0 3 3 v 10 q 0 3 -3 3 h -12 q -3 0 -3 -3 v -10 q 0 -3 3 -3 Z
      M -55 24  h 12 q 3 0 3 3 v 10 q 0 3 -3 3 h -12 q -3 0 -3 -3 v -10 q 0 -3 3 -3 Z
      M -55 54  h 12 q 3 0 3 3 v 10 q 0 3 -3 3 h -12 q -3 0 -3 -3 v -10 q 0 -3 3 -3 Z
      M 43 -66 h 12 q 3 0 3 3 v 10 q 0 3 -3 3 h -12 q -3 0 -3 -3 v -10 q 0 -3 3 -3 Z
      M 43 -36 h 12 q 3 0 3 3 v 10 q 0 3 -3 3 h -12 q -3 0 -3 -3 v -10 q 0 -3 3 -3 Z
      M 43 -6  h 12 q 3 0 3 3 v 10 q 0 3 -3 3 h -12 q -3 0 -3 -3 v -10 q 0 -3 3 -3 Z
      M 43 24  h 12 q 3 0 3 3 v 10 q 0 3 -3 3 h -12 q -3 0 -3 -3 v -10 q 0 -3 3 -3 Z
      M 43 54  h 12 q 3 0 3 3 v 10 q 0 3 -3 3 h -12 q -3 0 -3 -3 v -10 q 0 -3 3 -3 Z"/>
  </g>

  <g id="g-tv">
    <path fill="none" stroke="currentColor" stroke-width="13" stroke-linecap="round"
          d="M 0 -30 L -30 -64 M 0 -30 L 28 -64"/>
    <path fill="currentColor" fill-rule="evenodd" d="M -68 -28
      L 68 -28 Q 84 -28 84 -12 L 84 50 Q 84 66 68 66 L -68 66 Q -84 66 -84 50 L -84 -12 Q -84 -28 -68 -28 Z
      M -62 -12 L 34 -12 Q 40 -12 40 -6 L 40 44 Q 40 50 34 50 L -62 50 Q -68 50 -68 44 L -68 -6 Q -68 -12 -62 -12 Z
      M 62 -4 a 7 7 0 1 0 0.0001 0 Z
      M 62 16 a 7 7 0 1 0 0.0001 0 Z
      M 62 36 a 7 7 0 1 0 0.0001 0 Z"/>
  </g>

  <g id="g-pad">
    <path fill="currentColor" fill-rule="evenodd" d="M -44 -40
      L 44 -40 Q 84 -40 84 0 Q 84 40 44 40 L -44 40 Q -84 40 -84 0 Q -84 -40 -44 -40 Z
      M -51 -21 L -37 -21 L -37 -7 L -23 -7 L -23 7 L -37 7 L -37 21 L -51 21 L -51 7 L -65 7 L -65 -7 L -51 -7 Z
      M 44 -22 a 8 8 0 1 0 0.0001 0 Z
      M 60 -3 a 8 8 0 1 0 0.0001 0 Z
      M 28 -3 a 8 8 0 1 0 0.0001 0 Z
      M 44 16 a 8 8 0 1 0 0.0001 0 Z"/>
  </g>

  <g id="g-mic">
    <path fill="none" stroke="currentColor" stroke-width="13" stroke-linecap="round"
          d="M -46 -34 A 46 46 0 0 0 46 -34 M 0 11 L 0 44 M -27 50 L 27 50"/>
    <path fill="currentColor" fill-rule="evenodd" d="M -26 -50
      Q -26 -76 0 -76 Q 26 -76 26 -50 L 26 -30 Q 26 -4 0 -4 Q -26 -4 -26 -30 Z
      M -14 -56 L 14 -56 Q 18 -56 18 -52 Q 18 -48 14 -48 L -14 -48 Q -18 -48 -18 -52 Q -18 -56 -14 -56 Z
      M -14 -40 L 14 -40 Q 18 -40 18 -36 Q 18 -32 14 -32 L -14 -32 Q -18 -32 -18 -36 Q -18 -40 -14 -40 Z"/>
  </g>
  </defs>
  <path d="M544.5 143.5 L540.0 143.4 L535.5 144.1 L531.2 145.4 L527.2 147.3 L523.4 149.8 L520.1 152.9 L517.3 156.4 L515.0 160.3 L513.3 164.5 L512.3 168.9 L512.0 173.3 L512.0 285.5 L512.3 289.7 L513.2 293.9 L514.7 297.9 L566.7 411.7 L568.8 415.5 L571.5 419.0 L574.6 422.1 L578.2 424.7 L582.1 426.7 L586.2 428.2 L590.5 429.0 L720.1 443.9 L721.1 444.1 L720.4 444.8 L712.3 452.2 L709.0 455.7 L706.4 459.8 L704.4 464.2 L703.1 468.9 L702.6 473.8 L702.9 478.6 L704.0 483.4 L705.9 487.9 L708.4 492.0 L711.6 495.7 L715.3 498.8 L719.5 501.3 L724.1 503.0 L728.8 504.0 L733.7 504.3 L850.4 500.2 L854.9 499.7 L859.3 498.5 L863.4 496.7 L867.2 494.3 L870.6 491.4 L873.6 488.0 L876.0 484.1 L877.8 480.0 L878.9 475.6 L879.4 471.1 L879.2 466.6 L878.9 464.1 L878.8 463.3 L877.6 455.3 L877.5 454.6 L876.2 446.5 L876.0 445.8 L874.5 437.8 L874.3 437.1 L872.6 429.1 L872.4 428.4 L870.5 420.5 L870.3 419.8 L868.2 411.9 L868.0 411.2 L865.7 403.4 L865.5 402.7 L863.0 394.9 L862.8 394.3 L860.1 386.6 L859.8 385.9 L857.0 378.2 L856.7 377.6 L853.7 370.0 L853.4 369.3 L850.2 361.8 L849.9 361.2 L846.5 353.8 L846.1 353.1 L842.6 345.8 L842.2 345.1 L838.5 337.9 L838.1 337.3 L834.2 330.1 L833.9 329.5 L829.7 322.4 L829.4 321.8 L825.1 314.9 L824.7 314.3 L820.3 307.4 L819.9 306.8 L815.3 300.1 L814.9 299.5 L810.1 292.9 L809.7 292.3 L804.8 285.8 L804.3 285.2 L799.3 278.8 L798.8 278.2 L793.6 272.0 L793.1 271.4 L787.7 265.3 L787.3 264.8 L781.7 258.7 L781.2 258.2 L775.6 252.3 L775.1 251.8 L769.3 246.1 L768.8 245.6 L762.8 240.0 L762.3 239.5 L756.2 234.1 L755.7 233.6 L749.5 228.3 L748.9 227.8 L742.6 222.7 L742.0 222.2 L735.6 217.2 L735.0 216.8 L728.5 211.9 L727.9 211.5 L721.2 206.8 L720.6 206.4 L713.8 201.9 L713.2 201.5 L706.3 197.1 L705.7 196.8 L698.7 192.6 L698.1 192.2 L691.0 188.2 L690.4 187.8 L683.2 184.0 L682.5 183.6 L675.2 180.0 L674.6 179.6 L667.2 176.1 L666.6 175.8 L659.1 172.5 L658.5 172.2 L650.9 169.1 L650.3 168.8 L642.7 165.8 L642.0 165.6 L634.3 162.8 L633.6 162.6 L625.9 160.0 L625.2 159.8 L617.4 157.3 L616.7 157.1 L608.9 154.9 L608.2 154.7 L600.3 152.7 L599.6 152.5 L591.6 150.7 L590.9 150.5 L583.0 148.9 L582.2 148.7 L574.2 147.3 L573.5 147.2 L565.4 145.9 L564.7 145.8 L556.6 144.7 L555.9 144.6 L547.8 143.7 L547.1 143.7 Z" fill="#FFB491" fill-rule="evenodd"/>
  <g transform="translate(670.8 308.7) rotate(4) scale(0.8)">
    <use href="#g-book" y="3" color="#FFC4A9"/>
    <use href="#g-book" y="-3" color="#B27E66"/>
    <use href="#g-book" color="#DB9B7D"/>
  </g>
  <path d="M627.8 830.2 L629.7 834.3 L632.1 838.1 L635.1 841.5 L638.6 844.4 L642.4 846.7 L646.6 848.5 L651.0 849.5 L655.5 850.0 L660.0 849.7 L664.4 848.8 L668.6 847.2 L671.0 846.1 L671.6 845.8 L678.9 842.2 L679.6 841.9 L686.8 838.1 L687.4 837.8 L694.6 833.8 L695.2 833.5 L702.3 829.3 L702.9 829.0 L709.8 824.7 L710.4 824.3 L717.3 819.8 L717.9 819.4 L724.6 814.8 L725.2 814.4 L731.8 809.6 L732.4 809.2 L738.9 804.3 L739.4 803.8 L745.8 798.7 L746.4 798.3 L752.6 793.1 L753.2 792.6 L759.3 787.2 L759.8 786.7 L765.8 781.2 L766.4 780.7 L772.2 775.0 L772.7 774.5 L778.5 768.7 L779.0 768.2 L784.5 762.2 L785.0 761.7 L790.5 755.6 L790.9 755.1 L796.2 748.9 L796.7 748.3 L801.8 742.0 L802.3 741.4 L807.3 735.0 L807.7 734.4 L812.5 727.8 L813.0 727.2 L817.6 720.5 L818.0 719.9 L822.5 713.1 L822.9 712.5 L827.3 705.6 L827.7 705.0 L831.8 698.0 L832.2 697.4 L836.2 690.3 L836.6 689.6 L840.4 682.4 L840.7 681.8 L844.4 674.5 L844.7 673.9 L848.2 666.5 L848.5 665.8 L851.8 658.4 L852.1 657.7 L855.2 650.2 L855.5 649.5 L858.4 641.9 L858.7 641.2 L861.5 633.6 L861.7 632.9 L864.3 625.1 L864.5 624.5 L866.9 616.7 L867.1 616.0 L869.3 608.1 L869.5 607.4 L871.5 599.5 L871.7 598.8 L873.5 590.9 L873.6 590.2 L875.3 582.2 L875.4 581.5 L876.9 573.4 L877.0 572.7 L878.2 564.6 L878.3 563.9 L879.4 555.8 L879.5 555.1 L880.3 547.0 L880.4 546.3 L881.1 538.2 L881.1 537.5 L881.6 529.3 L881.6 528.6 L881.9 520.4 L881.9 519.7 L882.0 511.6 L882.0 510.8 L881.9 502.7 L881.9 502.0 L881.5 493.8 L881.5 493.1 L881.0 484.9 L881.0 484.2 L880.2 476.1 L880.2 475.4 L879.3 467.3 L879.2 466.6 L878.1 458.5 L878.0 457.8 L876.7 449.7 L876.6 449.0 L875.1 441.0 L875.0 440.3 L873.3 432.3 L873.1 431.6 L872.6 429.0 L871.2 424.7 L869.2 420.7 L866.6 417.0 L863.6 413.7 L860.0 410.9 L856.1 408.7 L851.9 407.1 L847.4 406.2 L842.9 405.9 L838.5 406.3 L834.1 407.4 L727.4 442.0 L723.5 443.6 L719.8 445.8 L716.4 448.4 L624.3 533.0 L621.3 536.2 L618.8 539.8 L616.8 543.8 L615.5 547.9 L614.8 552.3 L614.7 556.7 L615.2 561.0 L641.1 688.9 L641.2 689.8 L640.3 689.4 L630.8 684.1 L626.4 682.0 L621.7 680.7 L616.9 680.2 L612.0 680.5 L607.3 681.5 L602.7 683.3 L598.6 685.8 L594.9 688.9 L591.7 692.6 L589.2 696.8 L587.4 701.3 L586.3 706.1 L586.1 710.9 L586.6 715.7 L587.9 720.4 Z" fill="#FF9268" fill-rule="evenodd"/>
  <g transform="translate(754.4 600.2) rotate(-6) scale(0.8)">
    <use href="#g-film" y="3" color="#FFAA89"/>
    <use href="#g-film" y="-3" color="#B26649"/>
    <use href="#g-film" color="#DB7E59"/>
  </g>
  <path d="M245.1 720.5 L241.8 723.5 L239.0 727.0 L236.7 730.9 L235.0 735.1 L234.0 739.5 L233.6 744.0 L233.9 748.5 L234.9 752.9 L236.5 757.1 L238.8 761.0 L241.6 764.5 L243.4 766.4 L243.9 766.9 L249.5 772.8 L250.1 773.3 L255.9 779.0 L256.4 779.5 L262.4 785.1 L262.9 785.6 L269.0 791.0 L269.5 791.5 L275.8 796.8 L276.3 797.2 L282.7 802.3 L283.2 802.8 L289.7 807.8 L290.3 808.2 L296.8 813.0 L297.4 813.4 L304.1 818.1 L304.7 818.5 L311.5 823.0 L312.1 823.4 L319.1 827.7 L319.7 828.1 L326.7 832.2 L327.3 832.6 L334.4 836.6 L335.1 836.9 L342.3 840.8 L342.9 841.1 L350.2 844.7 L350.9 845.1 L358.2 848.5 L358.9 848.8 L366.4 852.1 L367.0 852.4 L374.6 855.5 L375.2 855.8 L382.8 858.7 L383.5 859.0 L391.2 861.7 L391.9 862.0 L399.6 864.5 L400.3 864.7 L408.1 867.1 L408.8 867.3 L416.7 869.5 L417.4 869.7 L425.3 871.7 L426.0 871.9 L433.9 873.7 L434.6 873.8 L442.6 875.4 L443.3 875.6 L451.4 877.0 L452.1 877.1 L460.2 878.3 L460.9 878.4 L469.0 879.5 L469.7 879.6 L477.8 880.4 L478.5 880.5 L486.6 881.1 L487.4 881.2 L495.5 881.6 L496.2 881.7 L504.4 881.9 L505.1 881.9 L513.3 882.0 L514.0 882.0 L522.1 881.9 L522.9 881.8 L531.0 881.5 L531.7 881.5 L539.9 880.9 L540.6 880.9 L548.7 880.2 L549.4 880.1 L557.5 879.2 L558.2 879.1 L566.3 878.0 L567.0 877.9 L575.1 876.6 L575.8 876.5 L583.8 875.0 L584.5 874.8 L592.5 873.1 L593.2 873.0 L601.2 871.1 L601.9 870.9 L609.8 868.8 L610.4 868.7 L618.3 866.4 L619.0 866.2 L626.8 863.7 L627.4 863.5 L635.2 860.9 L635.8 860.7 L643.5 857.8 L644.2 857.6 L651.8 854.6 L652.4 854.3 L659.9 851.1 L660.6 850.8 L668.0 847.5 L668.7 847.2 L676.0 843.6 L676.7 843.3 L684.0 839.6 L684.6 839.3 L691.8 835.4 L692.4 835.0 L699.5 831.0 L700.1 830.6 L702.3 829.3 L706.0 826.7 L709.2 823.5 L712.0 819.9 L714.1 816.0 L715.7 811.7 L716.6 807.3 L716.8 802.8 L716.3 798.3 L715.2 794.0 L713.4 789.8 L711.1 786.0 L645.2 695.3 L642.4 692.0 L639.2 689.1 L635.6 686.8 L526.7 625.3 L522.8 623.4 L518.6 622.2 L514.2 621.5 L509.8 621.5 L505.4 622.2 L501.2 623.4 L497.3 625.3 L383.7 689.4 L382.8 689.8 L382.9 688.9 L385.1 678.2 L385.7 673.3 L385.4 668.5 L384.4 663.7 L382.7 659.2 L380.2 655.0 L377.1 651.2 L373.5 648.0 L369.3 645.5 L364.8 643.6 L360.1 642.5 L355.3 642.2 L350.4 642.7 L345.7 643.9 L341.3 645.9 L337.2 648.6 Z" fill="#F76F4A" fill-rule="evenodd"/>
  <g transform="translate(503.0 769.8) rotate(5) scale(0.8)">
    <use href="#g-tv" y="3" color="#F98F72"/>
    <use href="#g-tv" y="-3" color="#AD4E34"/>
    <use href="#g-tv" color="#D45F40"/>
  </g>
  <path d="M231.2 322.6 L227.3 320.4 L223.1 318.8 L218.7 317.8 L214.2 317.5 L209.7 317.9 L205.3 318.9 L201.2 320.6 L197.3 322.9 L193.8 325.8 L190.8 329.1 L188.3 332.9 L187.0 335.1 L186.7 335.8 L182.9 343.0 L182.5 343.6 L178.9 350.9 L178.6 351.6 L175.1 359.0 L174.8 359.6 L171.6 367.1 L171.3 367.8 L168.2 375.3 L167.9 376.0 L165.0 383.6 L164.7 384.3 L162.0 392.0 L161.8 392.6 L159.2 400.4 L159.0 401.1 L156.7 408.9 L156.5 409.6 L154.3 417.5 L154.1 418.1 L152.1 426.1 L152.0 426.8 L150.2 434.7 L150.0 435.4 L148.4 443.4 L148.3 444.1 L146.9 452.2 L146.8 452.9 L145.5 460.9 L145.4 461.7 L144.4 469.8 L144.3 470.5 L143.5 478.6 L143.5 479.3 L142.8 487.4 L142.8 488.2 L142.3 496.3 L142.3 497.0 L142.1 505.2 L142.1 505.9 L142.0 514.1 L142.0 514.8 L142.2 522.9 L142.2 523.7 L142.5 531.8 L142.6 532.5 L143.1 540.7 L143.2 541.4 L143.9 549.5 L144.0 550.2 L144.9 558.3 L145.0 559.1 L146.1 567.1 L146.2 567.8 L147.6 575.9 L147.7 576.6 L149.2 584.6 L149.3 585.3 L151.0 593.3 L151.2 594.0 L153.1 601.9 L153.3 602.6 L155.4 610.5 L155.6 611.2 L157.8 619.1 L158.0 619.7 L160.5 627.5 L160.7 628.2 L163.4 635.9 L163.6 636.6 L166.5 644.3 L166.7 644.9 L169.7 652.5 L170.0 653.2 L173.2 660.7 L173.5 661.3 L176.9 668.8 L177.2 669.4 L180.7 676.8 L181.0 677.4 L184.8 684.7 L185.1 685.3 L189.0 692.5 L189.4 693.1 L193.4 700.2 L193.8 700.8 L198.0 707.8 L198.4 708.4 L202.8 715.2 L203.2 715.8 L207.8 722.6 L208.2 723.2 L212.9 729.8 L213.4 730.4 L218.2 737.0 L218.7 737.5 L223.7 743.9 L224.2 744.5 L229.4 750.8 L229.8 751.3 L235.2 757.5 L235.7 758.0 L241.2 764.1 L241.6 764.6 L247.3 770.5 L247.8 771.0 L253.6 776.8 L254.1 777.3 L260.0 782.9 L260.5 783.4 L266.6 788.9 L267.1 789.3 L269.1 791.0 L272.7 793.7 L276.7 795.8 L280.9 797.3 L285.4 798.2 L289.9 798.3 L294.4 797.8 L298.7 796.6 L302.8 794.8 L306.6 792.4 L310.0 789.4 L312.9 786.0 L378.8 695.3 L381.1 691.6 L382.8 687.7 L384.0 683.6 L408.8 561.0 L409.3 556.7 L409.2 552.3 L408.5 547.9 L407.2 543.8 L405.2 539.8 L402.7 536.2 L399.7 533.0 L303.6 444.8 L302.9 444.1 L303.9 443.9 L314.8 442.6 L319.5 441.7 L324.1 440.0 L328.3 437.6 L332.1 434.5 L335.3 430.9 L337.9 426.8 L339.8 422.3 L341.0 417.6 L341.3 412.7 L340.9 407.9 L339.7 403.2 L337.8 398.7 L335.2 394.6 L331.9 391.0 L328.1 388.0 Z" fill="#DC4F30" fill-rule="evenodd"/>
  <g transform="translate(264.0 583.1) rotate(-4) scale(0.8)">
    <use href="#g-pad" y="3" color="#E4765E"/>
    <use href="#g-pad" y="-3" color="#9A3722"/>
    <use href="#g-pad" color="#BD4429"/>
  </g>
  <path d="M171.5 367.2 L170.1 371.5 L169.3 375.9 L169.2 380.4 L169.8 384.9 L171.1 389.2 L172.9 393.3 L175.4 397.1 L178.4 400.5 L181.9 403.3 L185.8 405.6 L189.9 407.4 L296.6 442.0 L300.7 443.0 L305.0 443.5 L309.3 443.3 L433.5 429.0 L437.8 428.2 L441.9 426.7 L445.8 424.7 L449.4 422.1 L452.5 419.0 L455.2 415.5 L457.3 411.7 L511.5 293.0 L512.0 292.2 L512.5 293.0 L517.0 303.0 L519.4 307.2 L522.4 311.0 L526.0 314.3 L530.1 316.9 L534.6 318.9 L539.3 320.1 L544.1 320.5 L549.0 320.1 L553.7 319.0 L558.2 317.1 L562.3 314.5 L565.9 311.3 L569.0 307.5 L571.4 303.3 L573.1 298.8 L605.3 186.5 L606.3 182.1 L606.5 177.6 L606.1 173.1 L605.0 168.7 L603.2 164.5 L600.9 160.7 L598.0 157.2 L594.6 154.3 L590.8 151.8 L586.7 150.0 L582.3 148.8 L579.8 148.3 L579.1 148.1 L571.0 146.7 L570.3 146.6 L562.3 145.4 L561.5 145.3 L553.4 144.3 L552.7 144.3 L544.6 143.4 L543.9 143.4 L535.8 142.8 L535.0 142.7 L526.9 142.3 L526.2 142.3 L518.0 142.1 L517.3 142.0 L509.1 142.0 L508.4 142.0 L500.3 142.2 L499.5 142.2 L491.4 142.6 L490.7 142.6 L482.5 143.2 L481.8 143.2 L473.7 144.0 L473.0 144.1 L464.9 145.0 L464.1 145.1 L456.1 146.3 L455.4 146.4 L447.3 147.7 L446.6 147.8 L438.6 149.4 L437.9 149.5 L429.9 151.2 L429.2 151.4 L421.3 153.3 L420.6 153.5 L412.7 155.6 L412.0 155.8 L404.2 158.1 L403.5 158.3 L395.7 160.8 L395.0 161.0 L387.3 163.6 L386.6 163.9 L379.0 166.7 L378.3 167.0 L370.7 170.0 L370.1 170.3 L362.6 173.5 L361.9 173.8 L354.5 177.2 L353.8 177.5 L346.5 181.1 L345.9 181.4 L338.6 185.1 L338.0 185.5 L330.8 189.4 L330.2 189.8 L323.1 193.8 L322.5 194.2 L315.6 198.5 L314.9 198.8 L308.1 203.3 L307.5 203.7 L300.7 208.2 L300.1 208.7 L293.5 213.4 L292.9 213.8 L286.4 218.7 L285.8 219.2 L279.4 224.2 L278.9 224.7 L272.6 229.9 L272.0 230.4 L265.9 235.7 L265.4 236.2 L259.3 241.7 L258.8 242.2 L252.9 247.8 L252.4 248.4 L246.7 254.1 L246.2 254.7 L240.5 260.6 L240.1 261.1 L234.6 267.2 L234.1 267.7 L228.8 273.9 L228.3 274.4 L223.2 280.8 L222.7 281.3 L217.7 287.8 L217.3 288.3 L212.4 294.9 L212.0 295.5 L207.3 302.1 L206.9 302.7 L202.3 309.5 L201.9 310.1 L197.6 317.0 L197.2 317.6 L193.0 324.6 L192.6 325.2 L188.6 332.3 L188.2 332.9 L184.4 340.1 L184.0 340.8 L180.3 348.0 L180.0 348.7 L176.5 356.0 L176.2 356.7 L172.8 364.1 L172.5 364.8 Z" fill="#AE3722" fill-rule="evenodd"/>
  <g transform="translate(367.7 298.1) rotate(6) scale(0.8)">
    <use href="#g-mic" y="3" color="#C06353"/>
    <use href="#g-mic" y="-3" color="#7A2618"/>
    <use href="#g-mic" color="#962F1D"/>
  </g>
</svg>
