<svg xmlns="http://www.w3.org/2000/svg" width="1024" height="1024" viewBox="0 0 1024 1024"><rect width="1024" height="1024" fill="#1C1210"/><path d="M333.2 88.2 L327.5 91.2 L322.3 95.0 L317.7 99.6 L313.9 104.8 L311.0 110.5 L308.9 116.6 L307.8 123.0 L307.8 129.5 L308.6 135.8 L310.5 142.0 L313.3 147.8 L388.7 278.4 L392.9 284.4 L398.1 289.6 L404.1 293.8 L534.5 369.1 L540.4 371.9 L546.7 373.8 L553.3 374.7 L559.9 374.5 L566.3 373.3 L572.5 371.1 L578.3 367.9 L583.6 363.9 L588.1 359.1 L591.8 353.7 L710.7 147.8 L713.5 142.0 L715.4 135.8 L716.2 129.5 L716.2 123.0 L715.1 116.6 L713.0 110.5 L710.1 104.8 L706.3 99.6 L701.7 95.0 L696.5 91.2 L690.8 88.2 L688.5 87.2 L687.6 86.8 L679.1 83.4 L678.3 83.1 L669.8 79.9 L668.9 79.6 L660.3 76.6 L659.4 76.3 L650.8 73.4 L649.9 73.2 L641.2 70.5 L640.3 70.3 L631.5 67.8 L630.6 67.6 L621.8 65.3 L620.9 65.1 L612.0 63.0 L611.1 62.8 L602.2 60.9 L601.3 60.8 L592.3 59.1 L591.4 58.9 L582.4 57.4 L581.5 57.3 L572.5 56.0 L571.6 55.9 L562.5 54.8 L561.6 54.7 L552.5 53.8 L551.6 53.7 L542.5 53.0 L541.6 53.0 L532.5 52.5 L531.6 52.4 L522.5 52.1 L521.6 52.1 L512.5 52.0 L511.5 52.0 L502.4 52.1 L501.5 52.1 L492.4 52.4 L491.5 52.5 L482.4 53.0 L481.5 53.0 L472.4 53.7 L471.5 53.8 L462.4 54.7 L461.5 54.8 L452.4 55.9 L451.5 56.0 L442.5 57.3 L441.6 57.4 L432.6 58.9 L431.7 59.1 L422.7 60.8 L421.8 60.9 L412.9 62.8 L412.0 63.0 L403.1 65.1 L402.2 65.3 L393.4 67.6 L392.5 67.8 L383.7 70.3 L382.8 70.5 L374.1 73.2 L373.2 73.4 L364.6 76.3 L363.7 76.6 L355.1 79.6 L354.2 79.9 L345.7 83.1 L344.9 83.4 L336.4 86.8 L335.5 87.2 Z" fill="#FFC9AF" fill-rule="evenodd"/><g transform="translate(514.6 159.5) rotate(0.4) scale(1.55)"><path d="M0 -8 L-46 -24 L-46 16 L0 32 L46 16 L46 -24 Z" fill="#DC9980"/><path d="M0 -8 L0 32" stroke="#FFC9AF" stroke-width="6" stroke-linecap="round"/></g><path d="M789.6 145.2 L784.2 141.8 L778.3 139.2 L772.0 137.5 L765.6 136.9 L759.2 137.2 L752.8 138.5 L746.8 140.7 L741.2 143.8 L736.1 147.8 L731.7 152.5 L728.0 157.8 L609.2 363.7 L606.3 369.7 L604.5 376.0 L603.6 382.5 L603.8 389.1 L605.0 395.6 L607.2 401.8 L610.3 407.6 L614.3 412.8 L619.1 417.4 L624.5 421.1 L754.9 496.4 L761.6 499.5 L768.6 501.4 L775.9 502.0 L926.7 502.0 L933.2 501.5 L939.4 500.0 L945.4 497.6 L951.0 494.3 L955.9 490.2 L960.2 485.4 L963.7 479.9 L966.3 474.1 L968.0 467.8 L968.7 461.4 L968.4 455.0 L968.1 452.4 L968.0 451.5 L966.7 442.5 L966.6 441.6 L965.1 432.6 L964.9 431.7 L963.2 422.7 L963.1 421.8 L961.2 412.9 L961.0 412.0 L958.9 403.1 L958.7 402.2 L956.4 393.4 L956.2 392.5 L953.7 383.7 L953.5 382.8 L950.8 374.1 L950.6 373.2 L947.7 364.6 L947.4 363.7 L944.4 355.1 L944.1 354.2 L940.9 345.7 L940.6 344.9 L937.2 336.4 L936.8 335.5 L933.2 327.2 L932.9 326.3 L929.1 318.0 L928.7 317.2 L924.8 309.0 L924.4 308.1 L920.2 300.0 L919.8 299.2 L915.5 291.1 L915.1 290.3 L910.6 282.4 L910.1 281.6 L905.5 273.8 L905.0 273.0 L900.2 265.2 L899.7 264.5 L894.7 256.8 L894.2 256.1 L889.1 248.5 L888.5 247.8 L883.2 240.4 L882.7 239.6 L877.2 232.3 L876.7 231.6 L871.0 224.4 L870.5 223.7 L864.7 216.7 L864.1 216.0 L858.1 209.0 L857.5 208.4 L851.5 201.6 L850.8 200.9 L844.6 194.2 L844.0 193.6 L837.6 187.1 L836.9 186.4 L830.4 180.0 L829.8 179.4 L823.1 173.2 L822.4 172.5 L815.6 166.5 L815.0 165.9 L808.0 159.9 L807.3 159.3 L800.3 153.5 L799.6 153.0 L792.4 147.3 L791.7 146.8 Z" fill="#FF9E7C" fill-rule="evenodd"/><g transform="translate(816.0 333.5) rotate(59.6) scale(1.55)"><rect x="-31" y="-40" width="62" height="80" rx="8" fill="#DC7B5D"/><rect x="-25" y="-31" width="9" height="11" rx="2.5" fill="#FF9E7C"/><rect x="-25" y="-6" width="9" height="11" rx="2.5" fill="#FF9E7C"/><rect x="-25" y="19" width="9" height="11" rx="2.5" fill="#FF9E7C"/><rect x="16" y="-31" width="9" height="11" rx="2.5" fill="#FF9E7C"/><rect x="16" y="-6" width="9" height="11" rx="2.5" fill="#FF9E7C"/><rect x="16" y="19" width="9" height="11" rx="2.5" fill="#FF9E7C"/></g><path d="M728.0 866.2 L731.7 871.5 L736.1 876.2 L741.2 880.2 L746.8 883.3 L752.8 885.5 L759.2 886.8 L765.6 887.1 L772.0 886.5 L778.3 884.8 L784.2 882.2 L789.6 878.8 L791.7 877.2 L792.4 876.7 L799.6 871.0 L800.3 870.5 L807.3 864.7 L808.0 864.1 L815.0 858.1 L815.6 857.5 L822.4 851.5 L823.1 850.8 L829.8 844.6 L830.4 844.0 L836.9 837.6 L837.6 836.9 L844.0 830.4 L844.6 829.8 L850.8 823.1 L851.5 822.4 L857.5 815.6 L858.1 815.0 L864.1 808.0 L864.7 807.3 L870.5 800.3 L871.0 799.6 L876.7 792.4 L877.2 791.7 L882.7 784.4 L883.2 783.6 L888.5 776.2 L889.1 775.5 L894.2 767.9 L894.7 767.2 L899.7 759.5 L900.2 758.8 L905.0 751.0 L905.5 750.2 L910.1 742.4 L910.6 741.6 L915.1 733.7 L915.5 732.9 L919.8 724.8 L920.2 724.0 L924.4 715.9 L924.8 715.0 L928.7 706.8 L929.1 706.0 L932.9 697.7 L933.2 696.8 L936.8 688.5 L937.2 687.6 L940.6 679.1 L940.9 678.3 L944.1 669.8 L944.4 668.9 L947.4 660.3 L947.7 659.4 L950.6 650.8 L950.8 649.9 L953.5 641.2 L953.7 640.3 L956.2 631.5 L956.4 630.6 L958.7 621.8 L958.9 620.9 L961.0 612.0 L961.2 611.1 L963.1 602.2 L963.2 601.3 L964.9 592.3 L965.1 591.4 L966.6 582.4 L966.7 581.5 L968.0 572.5 L968.1 571.6 L968.4 569.0 L968.7 562.6 L968.0 556.2 L966.3 549.9 L963.7 544.1 L960.2 538.6 L955.9 533.8 L951.0 529.7 L945.4 526.4 L939.4 524.0 L933.2 522.5 L926.7 522.0 L775.9 522.0 L768.6 522.6 L761.6 524.5 L754.9 527.6 L624.5 602.9 L619.1 606.6 L614.3 611.2 L610.3 616.4 L607.2 622.2 L605.0 628.4 L603.8 634.9 L603.6 641.5 L604.5 648.0 L606.3 654.3 L609.2 660.3 Z" fill="#F87A55" fill-rule="evenodd"/><g transform="translate(816.0 690.5) rotate(120.4) scale(1.55)"><rect x="-42" y="-24" width="84" height="60" rx="12" fill="#FA9B7E"/><rect x="-30" y="-12" width="44" height="36" rx="6" fill="#F87A55"/><path d="M-15 -42 L0 -25 L15 -42" stroke="#FA9B7E" stroke-width="8" stroke-linecap="round" stroke-linejoin="round" fill="none"/></g><path d="M313.3 876.2 L310.5 882.0 L308.6 888.2 L307.8 894.5 L307.8 901.0 L308.9 907.4 L311.0 913.5 L313.9 919.2 L317.7 924.4 L322.3 929.0 L327.5 932.8 L333.2 935.8 L335.5 936.8 L336.4 937.2 L344.9 940.6 L345.7 940.9 L354.2 944.1 L355.1 944.4 L363.7 947.4 L364.6 947.7 L373.2 950.6 L374.1 950.8 L382.8 953.5 L383.7 953.7 L392.5 956.2 L393.4 956.4 L402.2 958.7 L403.1 958.9 L412.0 961.0 L412.9 961.2 L421.8 963.1 L422.7 963.2 L431.7 964.9 L432.6 965.1 L441.6 966.6 L442.5 966.7 L451.5 968.0 L452.4 968.1 L461.5 969.2 L462.4 969.3 L471.5 970.2 L472.4 970.3 L481.5 971.0 L482.4 971.0 L491.5 971.5 L492.4 971.6 L501.5 971.9 L502.4 971.9 L511.5 972.0 L512.5 972.0 L521.6 971.9 L522.5 971.9 L531.6 971.6 L532.5 971.5 L541.6 971.0 L542.5 971.0 L551.6 970.3 L552.5 970.2 L561.6 969.3 L562.5 969.2 L571.6 968.1 L572.5 968.0 L581.5 966.7 L582.4 966.6 L591.4 965.1 L592.3 964.9 L601.3 963.2 L602.2 963.1 L611.1 961.2 L612.0 961.0 L620.9 958.9 L621.8 958.7 L630.6 956.4 L631.5 956.2 L640.3 953.7 L641.2 953.5 L649.9 950.8 L650.8 950.6 L659.4 947.7 L660.3 947.4 L668.9 944.4 L669.8 944.1 L678.3 940.9 L679.1 940.6 L687.6 937.2 L688.5 936.8 L690.8 935.8 L696.5 932.8 L701.7 929.0 L706.3 924.4 L710.1 919.2 L713.0 913.5 L715.1 907.4 L716.2 901.0 L716.2 894.5 L715.4 888.2 L713.5 882.0 L710.7 876.2 L591.8 670.3 L588.1 664.9 L583.6 660.1 L578.3 656.1 L572.5 652.9 L566.3 650.7 L559.9 649.5 L553.3 649.3 L546.7 650.2 L540.4 652.1 L534.5 654.9 L404.1 730.2 L398.1 734.4 L392.9 739.6 L388.7 745.6 Z" fill="#E2583A" fill-rule="evenodd"/><g transform="translate(514.6 864.5) rotate(179.6) scale(1.55)"><rect x="-46" y="-20" width="92" height="46" rx="23" fill="#EB846B"/><path d="M-24 -7 L-24 13 M-34 3 L-14 3" stroke="#E2583A" stroke-width="8" stroke-linecap="round"/><circle cx="20" cy="-4" r="5.5" fill="#E2583A"/><circle cx="30" cy="9" r="5.5" fill="#E2583A"/></g><path d="M97.3 522.0 L90.8 522.5 L84.6 524.0 L78.6 526.4 L73.0 529.7 L68.1 533.8 L63.8 538.6 L60.3 544.1 L57.7 549.9 L56.0 556.2 L55.3 562.6 L55.6 569.0 L55.9 571.6 L56.0 572.5 L57.3 581.5 L57.4 582.4 L58.9 591.4 L59.1 592.3 L60.8 601.3 L60.9 602.2 L62.8 611.1 L63.0 612.0 L65.1 620.9 L65.3 621.8 L67.6 630.6 L67.8 631.5 L70.3 640.3 L70.5 641.2 L73.2 649.9 L73.4 650.8 L76.3 659.4 L76.6 660.3 L79.6 668.9 L79.9 669.8 L83.1 678.3 L83.4 679.1 L86.8 687.6 L87.2 688.5 L90.8 696.8 L91.1 697.7 L94.9 706.0 L95.3 706.8 L99.2 715.0 L99.6 715.9 L103.8 724.0 L104.2 724.8 L108.5 732.9 L108.9 733.7 L113.4 741.6 L113.9 742.4 L118.5 750.2 L119.0 751.0 L123.8 758.8 L124.3 759.5 L129.3 767.2 L129.8 767.9 L134.9 775.5 L135.5 776.2 L140.8 783.6 L141.3 784.4 L146.8 791.7 L147.3 792.4 L153.0 799.6 L153.5 800.3 L159.3 807.3 L159.9 808.0 L165.9 815.0 L166.5 815.6 L172.5 822.4 L173.2 823.1 L179.4 829.8 L180.0 830.4 L186.4 836.9 L187.1 837.6 L193.6 844.0 L194.2 844.6 L200.9 850.8 L201.6 851.5 L208.4 857.5 L209.0 858.1 L216.0 864.1 L216.7 864.7 L223.7 870.5 L224.4 871.0 L231.6 876.7 L232.3 877.2 L234.4 878.8 L239.8 882.2 L245.7 884.8 L252.0 886.5 L258.4 887.1 L264.8 886.8 L271.2 885.5 L277.2 883.3 L282.8 880.2 L287.9 876.2 L292.3 871.5 L296.0 866.2 L371.4 735.6 L374.5 728.9 L376.4 721.9 L377.0 714.6 L377.0 564.0 L376.5 557.4 L374.9 551.0 L372.4 544.9 L369.0 539.3 L364.7 534.3 L359.7 530.0 L354.1 526.6 L348.0 524.1 L341.6 522.5 L335.0 522.0 Z" fill="#C4432A" fill-rule="evenodd"/><g transform="translate(205.4 686.0) rotate(240.4) scale(1.55)"><rect x="-13" y="-44" width="26" height="48" rx="13" fill="#D6755F"/><path d="M-24 -8 a24 24 0 0 0 48 0" stroke="#D6755F" stroke-width="8" stroke-linecap="round" fill="none"/><path d="M0 16 L0 30 M-14 32 L14 32" stroke="#D6755F" stroke-width="8" stroke-linecap="round"/></g><path d="M55.6 455.0 L55.3 461.4 L56.0 467.8 L57.7 474.1 L60.3 479.9 L63.8 485.4 L68.1 490.2 L73.0 494.3 L78.6 497.6 L84.6 500.0 L90.8 501.5 L97.3 502.0 L335.0 502.0 L341.6 501.5 L348.0 499.9 L354.1 497.4 L359.7 494.0 L364.7 489.7 L369.0 484.7 L372.4 479.1 L374.9 473.0 L376.5 466.6 L377.0 460.0 L377.0 309.4 L376.4 302.1 L374.5 295.1 L371.4 288.4 L296.0 157.8 L292.3 152.5 L287.9 147.8 L282.8 143.8 L277.2 140.7 L271.2 138.5 L264.8 137.2 L258.4 136.9 L252.0 137.5 L245.7 139.2 L239.8 141.8 L234.4 145.2 L232.3 146.8 L231.6 147.3 L224.4 153.0 L223.7 153.5 L216.7 159.3 L216.0 159.9 L209.0 165.9 L208.4 166.5 L201.6 172.5 L200.9 173.2 L194.2 179.4 L193.6 180.0 L187.1 186.4 L186.4 187.1 L180.0 193.6 L179.4 194.2 L173.2 200.9 L172.5 201.6 L166.5 208.4 L165.9 209.0 L159.9 216.0 L159.3 216.7 L153.5 223.7 L153.0 224.4 L147.3 231.6 L146.8 232.3 L141.3 239.6 L140.8 240.4 L135.5 247.8 L134.9 248.5 L129.8 256.1 L129.3 256.8 L124.3 264.5 L123.8 265.2 L119.0 273.0 L118.5 273.8 L113.9 281.6 L113.4 282.4 L108.9 290.3 L108.5 291.1 L104.2 299.2 L103.8 300.0 L99.6 308.1 L99.2 309.0 L95.3 317.2 L94.9 318.0 L91.1 326.3 L90.8 327.2 L87.2 335.5 L86.8 336.4 L83.4 344.9 L83.1 345.7 L79.9 354.2 L79.6 355.1 L76.6 363.7 L76.3 364.6 L73.4 373.2 L73.2 374.1 L70.5 382.8 L70.3 383.7 L67.8 392.5 L67.6 393.4 L65.3 402.2 L65.1 403.1 L63.0 412.0 L62.8 412.9 L60.9 421.8 L60.8 422.7 L59.1 431.7 L58.9 432.6 L57.4 441.6 L57.3 442.5 L56.0 451.5 L55.9 452.4 Z" fill="#A03623" fill-rule="evenodd"/><g transform="translate(205.4 338.0) rotate(-60.4) scale(1.55)"><path d="M-13 24 L-13 -20 L33 -30 L33 16" stroke="#BC6C5A" stroke-width="10" stroke-linejoin="round" fill="none"/><ellipse cx="-22" cy="25" rx="12" ry="10" fill="#BC6C5A"/><ellipse cx="24" cy="16" rx="12" ry="10" fill="#BC6C5A"/></g></svg>