<svg xmlns="http://www.w3.org/2000/svg" width="1024" height="1024" viewBox="0 0 1024 1024"><rect width="1024" height="1024" fill="#1C1210"/><path d="M221.8 263.1 L220.7 269.3 L220.6 275.5 L221.4 281.7 L223.2 287.7 L225.8 293.3 L229.4 298.4 L233.6 303.0 L238.6 306.8 L244.0 309.8 L249.9 311.9 L256.0 313.1 L806.9 375.3 L812.7 375.5 L818.5 374.9 L824.1 373.5 L829.4 371.2 L834.4 368.3 L913.2 312.8 L912.2 310.6 L907.1 300.8 L901.8 291.2 L896.3 281.7 L890.5 272.3 L884.5 263.1 L878.3 254.0 L871.8 245.1 L865.2 236.4 L858.3 227.8 L851.2 219.4 L843.9 211.1 L836.5 203.1 L828.8 195.2 L820.9 187.5 L812.9 180.1 L804.6 172.8 L796.2 165.7 L787.6 158.8 L778.9 152.2 L770.0 145.7 L760.9 139.5 L751.7 133.5 L742.3 127.7 L732.8 122.2 L723.2 116.9 L713.4 111.8 L703.5 107.0 L693.5 102.4 L683.4 98.1 L673.2 94.0 L662.9 90.2 L652.5 86.6 L642.0 83.3 L631.5 80.2 L620.9 77.4 L610.2 74.9 L599.4 72.6 L588.6 70.6 L577.7 68.8 L566.8 67.4 L555.9 66.2 L545.0 65.2 L534.0 64.5 L523.0 64.1 L512.0 64.0 L501.0 64.1 L490.0 64.5 L479.0 65.2 L468.1 66.2 L457.2 67.4 L446.3 68.8 L435.4 70.6 L424.6 72.6 L413.8 74.9 L403.1 77.4 L392.5 80.2 L382.0 83.3 L371.5 86.6 L361.1 90.2 L350.8 94.0 L340.6 98.1 L330.5 102.4 L320.5 107.0 L310.6 111.8 L300.8 116.9 L291.2 122.2 L281.7 127.7 L280.6 128.4 L223.9 257.2 Z" fill="#FFC9AF"/><path d="M582.5 136.3 L576.6 138.4 L571.1 141.4 L566.2 145.2 L561.9 149.7 L558.3 154.8 L555.6 160.4 L553.8 166.4 L553.0 172.6 L553.1 178.8 L554.2 185.0 L556.3 190.9 L777.8 699.0 L780.5 704.2 L784.0 708.9 L788.0 713.0 L792.6 716.5 L797.7 719.4 L885.2 759.9 L890.5 751.7 L896.3 742.3 L901.8 732.8 L907.1 723.2 L912.2 713.4 L917.0 703.5 L921.6 693.5 L925.9 683.4 L930.0 673.2 L933.8 662.9 L937.4 652.5 L940.7 642.0 L943.8 631.5 L946.6 620.9 L949.1 610.2 L951.4 599.4 L953.4 588.6 L955.2 577.7 L956.6 566.8 L957.8 555.9 L958.8 545.0 L959.5 534.0 L959.9 523.0 L960.0 512.0 L959.9 501.0 L959.5 490.0 L958.8 479.0 L957.8 468.1 L956.6 457.2 L955.2 446.3 L953.4 435.4 L951.4 424.6 L949.1 413.8 L946.6 403.1 L943.8 392.5 L940.7 382.0 L937.4 371.5 L933.8 361.1 L930.0 350.8 L925.9 340.6 L921.6 330.5 L917.0 320.5 L912.2 310.6 L907.1 300.8 L901.8 291.2 L896.3 281.7 L890.5 272.3 L884.5 263.1 L878.3 254.0 L871.8 245.1 L865.2 236.4 L858.3 227.8 L851.2 219.4 L843.9 211.1 L836.5 203.1 L828.8 195.2 L820.9 187.5 L812.9 180.1 L804.6 172.8 L796.2 165.7 L787.6 158.8 L778.9 152.2 L770.0 145.7 L760.9 139.5 L751.7 133.5 L742.3 127.7 L732.8 122.2 L728.5 119.8 L588.6 135.1 Z" fill="#FF9E7C"/><path d="M872.6 385.2 L867.9 381.1 L862.5 377.9 L856.8 375.5 L850.7 374.0 L844.5 373.5 L838.3 374.0 L832.2 375.4 L826.4 377.8 L821.1 381.0 L816.3 385.1 L812.2 389.8 L482.9 835.8 L479.8 840.7 L477.5 846.0 L475.9 851.5 L475.2 857.3 L475.3 863.1 L483.9 959.1 L490.0 959.5 L501.0 959.9 L512.0 960.0 L523.0 959.9 L534.0 959.5 L545.0 958.8 L555.9 957.8 L566.8 956.6 L577.7 955.2 L588.6 953.4 L599.4 951.4 L610.2 949.1 L620.9 946.6 L631.5 943.8 L642.0 940.7 L652.5 937.4 L662.9 933.8 L673.2 930.0 L683.4 925.9 L693.5 921.6 L703.5 917.0 L713.4 912.2 L723.2 907.1 L732.8 901.8 L742.3 896.3 L751.7 890.5 L760.9 884.5 L770.0 878.3 L778.9 871.8 L787.6 865.2 L796.2 858.3 L804.6 851.2 L812.9 843.9 L820.9 836.5 L828.8 828.8 L836.5 820.9 L843.9 812.9 L851.2 804.6 L858.3 796.2 L865.2 787.6 L871.8 778.9 L878.3 770.0 L884.5 760.9 L890.5 751.7 L896.3 742.3 L901.8 732.8 L907.1 723.2 L912.2 713.4 L917.0 703.5 L921.6 693.5 L925.9 683.4 L930.0 673.2 L933.8 662.9 L937.4 652.5 L940.7 642.0 L943.8 631.5 L946.6 620.9 L949.1 610.2 L951.4 599.4 L953.4 588.6 L955.2 577.7 L956.6 566.8 L957.8 555.9 L958.8 545.0 L959.5 534.0 L959.9 523.0 L960.0 512.0 L959.9 503.4 L876.7 389.9 Z" fill="#F87A55"/><path d="M802.2 760.9 L803.3 754.7 L803.4 748.5 L802.6 742.3 L800.8 736.3 L798.2 730.7 L794.6 725.6 L790.4 721.0 L785.4 717.2 L780.0 714.2 L774.1 712.1 L768.0 710.9 L217.1 648.7 L211.3 648.5 L205.5 649.1 L199.9 650.5 L194.6 652.8 L189.6 655.7 L110.8 711.2 L111.8 713.4 L116.9 723.2 L122.2 732.8 L127.7 742.3 L133.5 751.7 L139.5 760.9 L145.7 770.0 L152.2 778.9 L158.8 787.6 L165.7 796.2 L172.8 804.6 L180.1 812.9 L187.5 820.9 L195.2 828.8 L203.1 836.5 L211.1 843.9 L219.4 851.2 L227.8 858.3 L236.4 865.2 L245.1 871.8 L254.0 878.3 L263.1 884.5 L272.3 890.5 L281.7 896.3 L291.2 901.8 L300.8 907.1 L310.6 912.2 L320.5 917.0 L330.5 921.6 L340.6 925.9 L350.8 930.0 L361.1 933.8 L371.5 937.4 L382.0 940.7 L392.5 943.8 L403.1 946.6 L413.8 949.1 L424.6 951.4 L435.4 953.4 L446.3 955.2 L457.2 956.6 L468.1 957.8 L479.0 958.8 L490.0 959.5 L501.0 959.9 L512.0 960.0 L523.0 959.9 L534.0 959.5 L545.0 958.8 L555.9 957.8 L566.8 956.6 L577.7 955.2 L588.6 953.4 L599.4 951.4 L610.2 949.1 L620.9 946.6 L631.5 943.8 L642.0 940.7 L652.5 937.4 L662.9 933.8 L673.2 930.0 L683.4 925.9 L693.5 921.6 L703.5 917.0 L713.4 912.2 L723.2 907.1 L732.8 901.8 L742.3 896.3 L743.4 895.6 L800.1 766.8 Z" fill="#E2583A"/><path d="M441.5 887.7 L447.4 885.6 L452.9 882.6 L457.8 878.8 L462.1 874.3 L465.7 869.2 L468.4 863.6 L470.2 857.6 L471.0 851.4 L470.9 845.2 L469.8 839.0 L467.7 833.1 L246.2 325.0 L243.5 319.8 L240.0 315.1 L236.0 311.0 L231.4 307.5 L226.3 304.6 L138.8 264.1 L133.5 272.3 L127.7 281.7 L122.2 291.2 L116.9 300.8 L111.8 310.6 L107.0 320.5 L102.4 330.5 L98.1 340.6 L94.0 350.8 L90.2 361.1 L86.6 371.5 L83.3 382.0 L80.2 392.5 L77.4 403.1 L74.9 413.8 L72.6 424.6 L70.6 435.4 L68.8 446.3 L67.4 457.2 L66.2 468.1 L65.2 479.0 L64.5 490.0 L64.1 501.0 L64.0 512.0 L64.1 523.0 L64.5 534.0 L65.2 545.0 L66.2 555.9 L67.4 566.8 L68.8 577.7 L70.6 588.6 L72.6 599.4 L74.9 610.2 L77.4 620.9 L80.2 631.5 L83.3 642.0 L86.6 652.5 L90.2 662.9 L94.0 673.2 L98.1 683.4 L102.4 693.5 L107.0 703.5 L111.8 713.4 L116.9 723.2 L122.2 732.8 L127.7 742.3 L133.5 751.7 L139.5 760.9 L145.7 770.0 L152.2 778.9 L158.8 787.6 L165.7 796.2 L172.8 804.6 L180.1 812.9 L187.5 820.9 L195.2 828.8 L203.1 836.5 L211.1 843.9 L219.4 851.2 L227.8 858.3 L236.4 865.2 L245.1 871.8 L254.0 878.3 L263.1 884.5 L272.3 890.5 L281.7 896.3 L291.2 901.8 L295.5 904.2 L435.4 888.9 Z" fill="#C4432A"/><path d="M151.4 638.8 L156.1 642.9 L161.5 646.1 L167.2 648.5 L173.3 650.0 L179.5 650.5 L185.7 650.0 L191.8 648.6 L197.6 646.2 L202.9 643.0 L207.7 638.9 L211.8 634.2 L541.1 188.2 L544.2 183.3 L546.5 178.0 L548.1 172.5 L548.8 166.7 L548.7 160.9 L540.1 64.9 L534.0 64.5 L523.0 64.1 L512.0 64.0 L501.0 64.1 L490.0 64.5 L479.0 65.2 L468.1 66.2 L457.2 67.4 L446.3 68.8 L435.4 70.6 L424.6 72.6 L413.8 74.9 L403.1 77.4 L392.5 80.2 L382.0 83.3 L371.5 86.6 L361.1 90.2 L350.8 94.0 L340.6 98.1 L330.5 102.4 L320.5 107.0 L310.6 111.8 L300.8 116.9 L291.2 122.2 L281.7 127.7 L272.3 133.5 L263.1 139.5 L254.0 145.7 L245.1 152.2 L236.4 158.8 L227.8 165.7 L219.4 172.8 L211.1 180.1 L203.1 187.5 L195.2 195.2 L187.5 203.1 L180.1 211.1 L172.8 219.4 L165.7 227.8 L158.8 236.4 L152.2 245.1 L145.7 254.0 L139.5 263.1 L133.5 272.3 L127.7 281.7 L122.2 291.2 L116.9 300.8 L111.8 310.6 L107.0 320.5 L102.4 330.5 L98.1 340.6 L94.0 350.8 L90.2 361.1 L86.6 371.5 L83.3 382.0 L80.2 392.5 L77.4 403.1 L74.9 413.8 L72.6 424.6 L70.6 435.4 L68.8 446.3 L67.4 457.2 L66.2 468.1 L65.2 479.0 L64.5 490.0 L64.1 501.0 L64.0 512.0 L64.1 520.6 L147.3 634.1 Z" fill="#A03623"/></svg>