<svg xmlns="http://www.w3.org/2000/svg" width="1024" height="1024" viewBox="0 0 1024 1024"><rect width="1024" height="1024" fill="#F6E7D3"/><path d="M568.9 55.6 L562.5 55.3 L556.1 56.0 L549.9 57.7 L544.0 60.3 L538.6 63.8 L533.8 68.1 L529.7 73.1 L526.4 78.6 L524.0 84.6 L522.5 90.9 L522.0 97.3 L522.0 232.7 L522.4 238.7 L523.7 244.5 L525.8 250.1 L584.1 377.6 L587.1 383.0 L590.8 387.9 L595.2 392.2 L600.2 395.8 L605.6 398.7 L611.5 400.7 L617.5 401.9 L756.8 418.0 L762.8 418.2 L768.7 417.6 L774.6 416.2 L903.3 374.3 L909.3 371.9 L914.8 368.5 L919.7 364.4 L924.0 359.6 L927.4 354.1 L930.0 348.2 L931.7 342.0 L932.3 335.6 L932.0 329.2 L930.7 322.8 L928.5 316.8 L927.4 314.5 L926.9 313.5 L922.1 303.7 L921.6 302.7 L916.5 293.0 L916.0 292.0 L910.6 282.5 L910.1 281.5 L904.5 272.1 L903.9 271.2 L898.1 261.9 L897.5 261.0 L891.4 251.9 L890.8 251.0 L884.5 242.1 L883.8 241.2 L877.3 232.4 L876.6 231.5 L869.8 222.9 L869.1 222.1 L862.1 213.7 L861.4 212.8 L854.2 204.6 L853.5 203.8 L846.0 195.8 L845.3 195.0 L837.7 187.1 L836.9 186.3 L829.0 178.7 L828.2 178.0 L820.2 170.5 L819.4 169.8 L811.2 162.6 L810.3 161.9 L801.9 154.9 L801.1 154.2 L792.5 147.4 L791.6 146.7 L782.8 140.2 L781.9 139.5 L773.0 133.2 L772.1 132.6 L763.0 126.5 L762.1 125.9 L752.8 120.1 L751.9 119.5 L742.5 113.9 L741.5 113.4 L732.0 108.0 L731.0 107.5 L721.3 102.4 L720.3 101.9 L710.5 97.1 L709.5 96.6 L699.6 92.0 L698.6 91.6 L688.5 87.2 L687.5 86.8 L677.4 82.8 L676.3 82.4 L666.1 78.6 L665.0 78.2 L654.7 74.7 L653.6 74.4 L643.2 71.1 L642.1 70.8 L631.6 67.8 L630.5 67.5 L619.9 64.8 L618.8 64.6 L608.2 62.2 L607.1 61.9 L596.4 59.8 L595.3 59.6 L584.5 57.8 L583.4 57.6 L572.6 56.0 L571.5 55.9 Z" fill="#FFA685" fill-rule="evenodd"/><g transform="translate(718.2 228.3) rotate(36.0) scale(1.55)"><path d="M0 -8 L-46 -24 L-46 16 L0 32 L46 16 L46 -24 Z" fill="#DC8163"/><path d="M0 -8 L0 32" stroke="#FFA685" stroke-width="6" stroke-linecap="round"/></g><path d="M763.9 841.6 L768.0 846.5 L772.9 850.8 L778.4 854.2 L784.3 856.7 L790.5 858.3 L796.9 858.9 L803.4 858.6 L809.7 857.3 L815.7 855.0 L821.3 851.8 L826.3 847.8 L828.2 846.0 L829.0 845.3 L836.9 837.7 L837.7 836.9 L845.3 829.0 L846.0 828.2 L853.5 820.2 L854.2 819.4 L861.4 811.2 L862.1 810.3 L869.1 801.9 L869.8 801.1 L876.6 792.5 L877.3 791.6 L883.8 782.8 L884.5 781.9 L890.8 773.0 L891.4 772.1 L897.5 763.0 L898.1 762.1 L903.9 752.8 L904.5 751.9 L910.1 742.5 L910.6 741.5 L916.0 732.0 L916.5 731.0 L921.6 721.3 L922.1 720.3 L926.9 710.5 L927.4 709.5 L932.0 699.6 L932.4 698.6 L936.8 688.5 L937.2 687.5 L941.2 677.4 L941.6 676.3 L945.4 666.1 L945.8 665.0 L949.3 654.7 L949.6 653.6 L952.9 643.2 L953.2 642.1 L956.2 631.6 L956.5 630.5 L959.2 619.9 L959.4 618.8 L961.8 608.2 L962.1 607.1 L964.2 596.4 L964.4 595.3 L966.2 584.5 L966.4 583.4 L968.0 572.6 L968.1 571.5 L969.4 560.6 L969.5 559.5 L970.5 548.6 L970.6 547.5 L971.3 536.6 L971.4 535.5 L971.8 524.6 L971.8 523.5 L972.0 512.5 L972.0 511.5 L971.8 500.5 L971.8 499.4 L971.4 488.5 L971.3 487.4 L970.6 476.5 L970.5 475.4 L969.5 464.5 L969.4 463.4 L968.1 452.5 L968.0 451.4 L966.4 440.6 L966.2 439.5 L964.4 428.7 L964.2 427.6 L963.7 425.1 L961.9 418.9 L959.3 413.0 L955.8 407.7 L951.4 402.9 L946.4 398.8 L940.9 395.5 L934.9 393.2 L928.6 391.7 L922.2 391.3 L915.8 391.8 L909.5 393.4 L780.7 435.2 L775.2 437.5 L770.0 440.5 L765.3 444.2 L662.1 539.1 L657.9 543.6 L654.4 548.6 L651.6 554.1 L649.7 560.0 L648.7 566.1 L648.6 572.2 L649.3 578.3 L677.1 715.7 L678.7 721.5 L681.1 727.0 L684.3 732.1 Z" fill="#FF8763" fill-rule="evenodd"/><g transform="translate(845.6 620.4) rotate(108.0) scale(1.55)"><rect x="-31" y="-40" width="62" height="80" rx="8" fill="#DC6B4B"/><rect x="-25" y="-31" width="9" height="11" rx="2.5" fill="#FF8763"/><rect x="-25" y="-6" width="9" height="11" rx="2.5" fill="#FF8763"/><rect x="-25" y="19" width="9" height="11" rx="2.5" fill="#FF8763"/><rect x="16" y="-31" width="9" height="11" rx="2.5" fill="#FF8763"/><rect x="16" y="-6" width="9" height="11" rx="2.5" fill="#FF8763"/><rect x="16" y="19" width="9" height="11" rx="2.5" fill="#FF8763"/></g><path d="M276.3 853.4 L272.9 858.9 L270.5 864.8 L268.9 871.1 L268.3 877.5 L268.7 883.9 L270.1 890.2 L272.4 896.2 L275.6 901.8 L279.7 906.8 L284.4 911.2 L289.8 914.7 L292.0 916.0 L293.0 916.5 L302.7 921.6 L303.7 922.1 L313.5 926.9 L314.5 927.4 L324.4 932.0 L325.4 932.4 L335.5 936.8 L336.5 937.2 L346.6 941.2 L347.7 941.6 L357.9 945.4 L359.0 945.8 L369.3 949.3 L370.4 949.6 L380.8 952.9 L381.9 953.2 L392.4 956.2 L393.5 956.5 L404.1 959.2 L405.2 959.4 L415.8 961.8 L416.9 962.1 L427.6 964.2 L428.7 964.4 L439.5 966.2 L440.6 966.4 L451.4 968.0 L452.5 968.1 L463.4 969.4 L464.5 969.5 L475.4 970.5 L476.5 970.6 L487.4 971.3 L488.5 971.4 L499.4 971.8 L500.5 971.8 L511.5 972.0 L512.5 972.0 L523.5 971.8 L524.6 971.8 L535.5 971.4 L536.6 971.3 L547.5 970.6 L548.6 970.5 L559.5 969.5 L560.6 969.4 L571.5 968.1 L572.6 968.0 L583.4 966.4 L584.5 966.2 L595.3 964.4 L596.4 964.2 L607.1 962.1 L608.2 961.8 L618.8 959.4 L619.9 959.2 L630.5 956.5 L631.6 956.2 L642.1 953.2 L643.2 952.9 L653.6 949.6 L654.7 949.3 L665.0 945.8 L666.1 945.4 L676.3 941.6 L677.4 941.2 L687.5 937.2 L688.5 936.8 L698.6 932.4 L699.6 932.0 L709.5 927.4 L710.5 926.9 L720.3 922.1 L721.3 921.6 L731.0 916.5 L732.0 916.0 L734.2 914.7 L739.6 911.2 L744.3 906.8 L748.4 901.8 L751.6 896.2 L753.9 890.2 L755.3 883.9 L755.7 877.5 L755.1 871.1 L753.5 864.8 L751.1 858.9 L747.7 853.4 L668.1 743.9 L664.2 739.3 L659.7 735.3 L654.7 732.0 L532.6 663.1 L527.1 660.5 L521.2 658.7 L515.1 657.8 L508.9 657.8 L502.8 658.7 L496.9 660.5 L491.4 663.1 L369.3 732.0 L364.3 735.3 L359.8 739.3 L355.9 743.9 Z" fill="#F26644" fill-rule="evenodd"/><g transform="translate(512.0 862.7) rotate(180.0) scale(1.55)"><rect x="-42" y="-24" width="84" height="60" rx="12" fill="#F68D72"/><rect x="-30" y="-12" width="44" height="36" rx="6" fill="#F26644"/><path d="M-15 -42 L0 -25 L15 -42" stroke="#F68D72" stroke-width="8" stroke-linecap="round" stroke-linejoin="round" fill="none"/></g><path d="M114.5 393.4 L108.2 391.8 L101.8 391.3 L95.4 391.7 L89.1 393.2 L83.1 395.5 L77.6 398.8 L72.6 402.9 L68.2 407.7 L64.7 413.0 L62.1 418.9 L60.3 425.1 L59.8 427.6 L59.6 428.7 L57.8 439.5 L57.6 440.6 L56.0 451.4 L55.9 452.5 L54.6 463.4 L54.5 464.5 L53.5 475.4 L53.4 476.5 L52.7 487.4 L52.6 488.5 L52.2 499.4 L52.2 500.5 L52.0 511.5 L52.0 512.5 L52.2 523.5 L52.2 524.6 L52.6 535.5 L52.7 536.6 L53.4 547.5 L53.5 548.6 L54.5 559.5 L54.6 560.6 L55.9 571.5 L56.0 572.6 L57.6 583.4 L57.8 584.5 L59.6 595.3 L59.8 596.4 L61.9 607.1 L62.2 608.2 L64.6 618.8 L64.8 619.9 L67.5 630.5 L67.8 631.6 L70.8 642.1 L71.1 643.2 L74.4 653.6 L74.7 654.7 L78.2 665.0 L78.6 666.1 L82.4 676.3 L82.8 677.4 L86.8 687.5 L87.2 688.5 L91.6 698.6 L92.0 699.6 L96.6 709.5 L97.1 710.5 L101.9 720.3 L102.4 721.3 L107.5 731.0 L108.0 732.0 L113.4 741.5 L113.9 742.5 L119.5 751.9 L120.1 752.8 L125.9 762.1 L126.5 763.0 L132.6 772.1 L133.2 773.0 L139.5 781.9 L140.2 782.8 L146.7 791.6 L147.4 792.5 L154.2 801.1 L154.9 801.9 L161.9 810.3 L162.6 811.2 L169.8 819.4 L170.5 820.2 L178.0 828.2 L178.7 829.0 L186.3 836.9 L187.1 837.7 L195.0 845.3 L195.8 846.0 L197.7 847.8 L202.7 851.8 L208.3 855.0 L214.3 857.3 L220.6 858.6 L227.1 858.9 L233.5 858.3 L239.7 856.7 L245.6 854.2 L251.1 850.8 L256.0 846.5 L260.1 841.6 L339.7 732.1 L342.9 727.0 L345.3 721.5 L346.9 715.7 L374.7 578.3 L375.4 572.2 L375.3 566.1 L374.3 560.0 L372.4 554.1 L369.6 548.6 L366.1 543.6 L361.9 539.1 L258.7 444.2 L254.0 440.5 L248.8 437.5 L243.3 435.2 Z" fill="#DB482C" fill-rule="evenodd"/><g transform="translate(178.4 620.4) rotate(252.0) scale(1.55)"><rect x="-46" y="-20" width="92" height="46" rx="23" fill="#E67861"/><path d="M-24 -7 L-24 13 M-34 3 L-14 3" stroke="#DB482C" stroke-width="8" stroke-linecap="round"/><circle cx="20" cy="-4" r="5.5" fill="#DB482C"/><circle cx="30" cy="9" r="5.5" fill="#DB482C"/></g><path d="M95.5 316.8 L93.3 322.8 L92.0 329.2 L91.7 335.6 L92.3 342.0 L94.0 348.2 L96.6 354.1 L100.0 359.6 L104.3 364.4 L109.2 368.5 L114.7 371.9 L120.7 374.3 L249.4 416.2 L255.3 417.6 L261.2 418.2 L267.2 418.0 L406.5 401.9 L412.5 400.7 L418.4 398.7 L423.8 395.8 L428.8 392.2 L433.2 387.9 L436.9 383.0 L439.9 377.6 L498.2 250.1 L500.3 244.5 L501.6 238.7 L502.0 232.7 L502.0 97.3 L501.5 90.9 L500.0 84.6 L497.6 78.6 L494.3 73.1 L490.2 68.1 L485.4 63.8 L480.0 60.3 L474.1 57.7 L467.9 56.0 L461.5 55.3 L455.1 55.6 L452.5 55.9 L451.4 56.0 L440.6 57.6 L439.5 57.8 L428.7 59.6 L427.6 59.8 L416.9 61.9 L415.8 62.2 L405.2 64.6 L404.1 64.8 L393.5 67.5 L392.4 67.8 L381.9 70.8 L380.8 71.1 L370.4 74.4 L369.3 74.7 L359.0 78.2 L357.9 78.6 L347.7 82.4 L346.6 82.8 L336.5 86.8 L335.5 87.2 L325.4 91.6 L324.4 92.0 L314.5 96.6 L313.5 97.1 L303.7 101.9 L302.7 102.4 L293.0 107.5 L292.0 108.0 L282.5 113.4 L281.5 113.9 L272.1 119.5 L271.2 120.1 L261.9 125.9 L261.0 126.5 L251.9 132.6 L251.0 133.2 L242.1 139.5 L241.2 140.2 L232.4 146.7 L231.5 147.4 L222.9 154.2 L222.1 154.9 L213.7 161.9 L212.8 162.6 L204.6 169.8 L203.8 170.5 L195.8 178.0 L195.0 178.7 L187.1 186.3 L186.3 187.1 L178.7 195.0 L178.0 195.8 L170.5 203.8 L169.8 204.6 L162.6 212.8 L161.9 213.7 L154.9 222.1 L154.2 222.9 L147.4 231.5 L146.7 232.4 L140.2 241.2 L139.5 242.1 L133.2 251.0 L132.6 251.9 L126.5 261.0 L125.9 261.9 L120.1 271.2 L119.5 272.1 L113.9 281.5 L113.4 282.5 L108.0 292.0 L107.5 293.0 L102.4 302.7 L101.9 303.7 L97.1 313.5 L96.6 314.5 Z" fill="#B23520" fill-rule="evenodd"/><g transform="translate(305.8 228.3) rotate(-36.0) scale(1.55)"><rect x="-13" y="-44" width="26" height="48" rx="13" fill="#C96B58"/><path d="M-24 -8 a24 24 0 0 0 48 0" stroke="#C96B58" stroke-width="8" stroke-linecap="round" fill="none"/><path d="M0 16 L0 30 M-14 32 L14 32" stroke="#C96B58" stroke-width="8" stroke-linecap="round"/></g></svg>