<svg xmlns="http://www.w3.org/2000/svg" width="1024" height="1024" viewBox="0 0 1024 1024"><rect width="1024" height="1024" fill="#F6E7D3"/><path d="M54.2 466.9 L54.1 471.7 L54.8 476.5 L56.1 481.2 L58.1 485.6 L60.8 489.6 L64.1 493.2 L67.8 496.3 L72.0 498.7 L76.5 500.5 L81.3 501.6 L86.1 502.0 L311.9 502.0 L316.9 501.6 L321.8 500.4 L326.5 498.5 L330.8 495.8 L334.6 492.5 L337.9 488.6 L340.5 484.3 L342.4 479.6 L343.5 474.7 L343.9 469.6 L343.4 464.6 L342.1 459.7 L340.7 455.4 L340.4 454.4 L338.6 448.5 L338.3 447.3 L336.9 441.6 L336.6 440.3 L335.6 434.8 L335.3 433.3 L334.6 428.0 L334.5 426.4 L334.1 421.3 L334.0 419.6 L334.0 414.5 L334.0 413.0 L334.3 408.8 L334.3 407.9 L334.7 403.7 L334.8 402.7 L335.3 398.6 L335.5 397.6 L336.1 393.7 L336.3 392.7 L337.1 388.9 L337.3 387.9 L338.2 384.3 L338.5 383.2 L339.5 379.8 L339.9 378.7 L341.0 375.4 L341.4 374.3 L342.7 371.2 L343.1 370.1 L344.5 367.1 L345.0 366.0 L346.4 363.1 L347.0 362.1 L348.5 359.4 L349.1 358.3 L350.8 355.7 L351.5 354.7 L353.2 352.2 L353.9 351.2 L355.7 348.9 L356.5 347.9 L358.4 345.8 L359.3 344.8 L361.2 342.8 L362.1 341.8 L364.1 340.0 L365.1 339.1 L367.1 337.4 L367.8 336.8 L371.5 333.4 L374.6 329.4 L377.1 325.0 L378.8 320.2 L379.7 315.3 L379.9 310.2 L379.2 305.2 L377.8 300.4 L375.6 295.8 L290.4 148.2 L287.7 144.1 L284.3 140.6 L280.5 137.6 L276.3 135.2 L271.8 133.5 L267.0 132.5 L262.2 132.2 L257.4 132.6 L252.7 133.8 L248.2 135.6 L244.0 138.1 L240.3 140.8 L239.7 141.2 L232.2 146.8 L231.7 147.3 L224.4 153.0 L223.8 153.5 L216.6 159.4 L216.1 159.8 L209.0 165.9 L208.4 166.4 L201.5 172.6 L201.0 173.1 L194.2 179.5 L193.7 180.0 L187.0 186.5 L186.5 187.0 L180.0 193.7 L179.5 194.2 L173.1 201.0 L172.6 201.5 L166.4 208.4 L165.9 209.0 L159.8 216.1 L159.4 216.6 L153.5 223.8 L153.0 224.4 L147.3 231.7 L146.8 232.2 L141.2 239.7 L140.8 240.3 L135.4 247.9 L135.0 248.4 L129.7 256.1 L129.3 256.7 L124.2 264.6 L123.9 265.1 L118.9 273.1 L118.6 273.7 L113.8 281.7 L113.5 282.3 L108.9 290.4 L108.5 291.1 L104.1 299.3 L103.8 299.9 L99.6 308.2 L99.3 308.9 L95.2 317.3 L95.0 317.9 L91.1 326.4 L90.8 327.1 L87.2 335.6 L86.9 336.3 L83.4 345.0 L83.2 345.6 L79.9 354.3 L79.6 355.0 L76.5 363.8 L76.3 364.5 L73.4 373.3 L73.2 374.0 L70.5 382.9 L70.3 383.6 L67.8 392.6 L67.6 393.3 L65.3 402.3 L65.1 403.0 L63.0 412.1 L62.8 412.8 L60.9 421.9 L60.8 422.6 L59.1 431.8 L58.9 432.5 L57.4 441.7 L57.3 442.4 L56.0 451.6 L55.9 452.3 L54.8 461.6 L54.7 462.3 Z" fill="#FFC4A6" fill-rule="evenodd"/><g transform="translate(196.5 333.2) rotate(-60.5) scale(1.55)"><path d="M0 -8 L-46 -24 L-46 16 L0 32 L46 16 L46 -24 Z" fill="#DC967A"/><path d="M0 -8 L0 32" stroke="#FFC4A6" stroke-width="6" stroke-linecap="round"/></g><path d="M322.2 93.0 L318.0 95.3 L314.1 98.3 L310.7 101.8 L307.9 105.7 L305.8 110.1 L304.3 114.7 L303.5 119.5 L303.5 124.3 L304.2 129.1 L305.6 133.8 L307.7 138.2 L405.6 307.7 L408.7 312.2 L412.6 316.1 L417.0 319.2 L422.0 321.6 L427.3 323.1 L427.8 323.2 L429.1 323.5 L431.8 324.1 L433.7 324.7 L436.0 325.4 L437.7 326.1 L440.1 327.0 L441.7 327.7 L444.1 328.9 L445.5 329.7 L447.9 331.0 L449.2 331.8 L451.7 333.4 L452.8 334.2 L455.2 335.9 L456.3 336.7 L458.7 338.7 L459.6 339.5 L462.1 341.7 L462.9 342.4 L465.3 344.8 L466.0 345.5 L468.4 348.0 L469.1 348.7 L471.4 351.4 L472.0 352.1 L474.4 354.9 L474.9 355.6 L477.2 358.6 L477.6 359.2 L479.9 362.3 L480.3 362.8 L482.6 366.1 L482.9 366.6 L485.2 370.1 L488.2 374.0 L491.7 377.4 L495.7 380.2 L500.1 382.3 L504.7 383.8 L509.6 384.5 L514.4 384.5 L519.3 383.8 L523.9 382.3 L528.3 380.2 L532.3 377.4 L535.8 374.0 L538.8 370.1 L541.1 366.6 L541.4 366.1 L543.7 362.8 L544.1 362.3 L546.4 359.2 L546.8 358.6 L549.1 355.6 L549.6 354.9 L552.0 352.1 L552.6 351.4 L554.9 348.7 L555.6 348.0 L558.0 345.5 L558.7 344.8 L561.1 342.4 L561.9 341.7 L564.4 339.5 L565.3 338.7 L567.7 336.7 L568.8 335.9 L571.2 334.2 L572.3 333.4 L574.8 331.8 L576.1 331.0 L578.5 329.7 L579.9 328.9 L582.3 327.7 L583.9 327.0 L586.3 326.1 L588.0 325.4 L590.3 324.7 L592.2 324.1 L594.9 323.5 L596.2 323.2 L596.7 323.1 L602.0 321.6 L607.0 319.2 L611.4 316.1 L615.3 312.2 L618.4 307.7 L716.3 138.2 L718.4 133.8 L719.8 129.1 L720.5 124.3 L720.5 119.5 L719.7 114.7 L718.2 110.1 L716.1 105.7 L713.3 101.8 L709.9 98.3 L706.0 95.3 L701.8 93.0 L697.6 91.1 L696.9 90.8 L688.4 87.2 L687.7 86.9 L679.0 83.4 L678.4 83.2 L669.7 79.9 L669.0 79.6 L660.2 76.5 L659.5 76.3 L650.7 73.4 L650.0 73.2 L641.1 70.5 L640.4 70.3 L631.4 67.8 L630.7 67.6 L621.7 65.3 L621.0 65.1 L611.9 63.0 L611.2 62.8 L602.1 60.9 L601.4 60.8 L592.2 59.1 L591.5 58.9 L582.3 57.4 L581.6 57.3 L572.4 56.0 L571.7 55.9 L562.4 54.8 L561.7 54.7 L552.4 53.8 L551.7 53.7 L542.4 53.0 L541.7 53.0 L532.4 52.5 L531.7 52.4 L522.4 52.1 L521.7 52.1 L512.3 52.0 L511.7 52.0 L502.3 52.1 L501.6 52.1 L492.3 52.4 L491.6 52.5 L482.3 53.0 L481.6 53.0 L472.3 53.7 L471.6 53.8 L462.3 54.7 L461.6 54.8 L452.3 55.9 L451.6 56.0 L442.4 57.3 L441.7 57.4 L432.5 58.9 L431.8 59.1 L422.6 60.8 L421.9 60.9 L412.8 62.8 L412.1 63.0 L403.0 65.1 L402.3 65.3 L393.3 67.6 L392.6 67.8 L383.6 70.3 L382.9 70.5 L374.0 73.2 L373.3 73.4 L364.5 76.3 L363.8 76.5 L355.0 79.6 L354.3 79.9 L345.6 83.2 L345.0 83.4 L336.3 86.9 L335.6 87.2 L327.1 90.8 L326.4 91.1 Z" fill="#FFA685" fill-rule="evenodd"/><g transform="translate(512.0 160.6) rotate(-0.0) scale(1.55)"><rect x="-31" y="-40" width="62" height="80" rx="8" fill="#DC8163"/><rect x="-25" y="-31" width="9" height="11" rx="2.5" fill="#FFA685"/><rect x="-25" y="-6" width="9" height="11" rx="2.5" fill="#FFA685"/><rect x="-25" y="19" width="9" height="11" rx="2.5" fill="#FFA685"/><rect x="16" y="-31" width="9" height="11" rx="2.5" fill="#FFA685"/><rect x="16" y="-6" width="9" height="11" rx="2.5" fill="#FFA685"/><rect x="16" y="19" width="9" height="11" rx="2.5" fill="#FFA685"/></g><path d="M648.4 295.8 L646.2 300.4 L644.8 305.2 L644.1 310.2 L644.3 315.3 L645.2 320.2 L646.9 325.0 L649.4 329.4 L652.5 333.4 L656.2 336.8 L656.9 337.4 L658.9 339.1 L659.9 340.0 L661.9 341.8 L662.8 342.8 L664.7 344.8 L665.6 345.8 L667.5 347.9 L668.3 348.9 L670.1 351.2 L670.8 352.2 L672.5 354.7 L673.2 355.7 L674.9 358.3 L675.5 359.4 L677.0 362.1 L677.6 363.1 L679.0 366.0 L679.5 367.1 L680.9 370.1 L681.3 371.2 L682.6 374.3 L683.0 375.4 L684.1 378.7 L684.5 379.8 L685.5 383.2 L685.8 384.3 L686.7 387.9 L686.9 388.9 L687.7 392.7 L687.9 393.7 L688.5 397.6 L688.7 398.6 L689.2 402.7 L689.3 403.7 L689.7 407.9 L689.7 408.8 L690.0 413.0 L690.0 414.5 L690.0 419.6 L689.9 421.3 L689.5 426.4 L689.4 428.0 L688.7 433.3 L688.4 434.8 L687.4 440.3 L687.1 441.6 L685.7 447.3 L685.4 448.5 L683.6 454.4 L683.3 455.4 L681.9 459.7 L680.6 464.6 L680.1 469.6 L680.5 474.7 L681.6 479.6 L683.5 484.3 L686.1 488.6 L689.4 492.5 L693.2 495.8 L697.5 498.5 L702.2 500.4 L707.1 501.6 L712.1 502.0 L937.9 502.0 L942.7 501.6 L947.5 500.5 L952.0 498.7 L956.2 496.3 L959.9 493.2 L963.2 489.6 L965.9 485.6 L967.9 481.2 L969.2 476.5 L969.9 471.7 L969.8 466.9 L969.3 462.3 L969.2 461.6 L968.1 452.3 L968.0 451.6 L966.7 442.4 L966.6 441.7 L965.1 432.5 L964.9 431.8 L963.2 422.6 L963.1 421.9 L961.2 412.8 L961.0 412.1 L958.9 403.0 L958.7 402.3 L956.4 393.3 L956.2 392.6 L953.7 383.6 L953.5 382.9 L950.8 374.0 L950.6 373.3 L947.7 364.5 L947.5 363.8 L944.4 355.0 L944.1 354.3 L940.8 345.6 L940.6 345.0 L937.1 336.3 L936.8 335.6 L933.2 327.1 L932.9 326.4 L929.0 317.9 L928.8 317.3 L924.7 308.9 L924.4 308.2 L920.2 299.9 L919.9 299.3 L915.5 291.1 L915.1 290.4 L910.5 282.3 L910.2 281.7 L905.4 273.7 L905.1 273.1 L900.1 265.1 L899.8 264.6 L894.7 256.7 L894.3 256.1 L889.0 248.4 L888.6 247.9 L883.2 240.3 L882.8 239.7 L877.2 232.2 L876.7 231.7 L871.0 224.4 L870.5 223.8 L864.6 216.6 L864.2 216.1 L858.1 209.0 L857.6 208.4 L851.4 201.5 L850.9 201.0 L844.5 194.2 L844.0 193.7 L837.5 187.0 L837.0 186.5 L830.3 180.0 L829.8 179.5 L823.0 173.1 L822.5 172.6 L815.6 166.4 L815.0 165.9 L807.9 159.8 L807.4 159.4 L800.2 153.5 L799.6 153.0 L792.3 147.3 L791.8 146.8 L784.3 141.2 L783.7 140.8 L780.0 138.1 L775.8 135.6 L771.3 133.8 L766.6 132.6 L761.8 132.2 L757.0 132.5 L752.2 133.5 L747.7 135.2 L743.5 137.6 L739.7 140.6 L736.3 144.1 L733.6 148.2 Z" fill="#FF8763" fill-rule="evenodd"/><g transform="translate(827.5 333.2) rotate(60.5) scale(1.55)"><rect x="-42" y="-24" width="84" height="60" rx="12" fill="#DC6B4B"/><rect x="-30" y="-12" width="44" height="36" rx="6" fill="#FF8763"/><path d="M-15 -42 L0 -25 L15 -42" stroke="#DC6B4B" stroke-width="8" stroke-linecap="round" stroke-linejoin="round" fill="none"/></g><path d="M597.0 601.2 L594.3 605.7 L592.4 610.5 L591.3 615.6 L591.0 620.8 L591.6 626.0 L593.1 631.0 L595.3 635.8 L733.6 875.8 L736.4 879.8 L739.7 883.4 L743.5 886.4 L747.7 888.8 L752.2 890.5 L757.0 891.5 L761.8 891.8 L766.7 891.4 L771.4 890.2 L775.8 888.4 L780.0 885.8 L783.7 883.2 L784.3 882.8 L791.8 877.2 L792.3 876.7 L799.6 871.0 L800.2 870.5 L807.4 864.6 L807.9 864.2 L815.0 858.1 L815.6 857.6 L822.5 851.4 L823.0 850.9 L829.8 844.5 L830.3 844.0 L837.0 837.5 L837.5 837.0 L844.0 830.3 L844.5 829.8 L850.9 823.0 L851.4 822.5 L857.6 815.6 L858.1 815.0 L864.2 807.9 L864.6 807.4 L870.5 800.2 L871.0 799.6 L876.7 792.3 L877.2 791.8 L882.8 784.3 L883.2 783.7 L888.6 776.1 L889.0 775.6 L894.3 767.9 L894.7 767.3 L899.8 759.4 L900.1 758.9 L905.1 750.9 L905.4 750.3 L910.2 742.3 L910.5 741.7 L915.1 733.6 L915.5 732.9 L919.9 724.7 L920.2 724.1 L924.4 715.8 L924.7 715.1 L928.8 706.7 L929.0 706.1 L932.9 697.6 L933.2 696.9 L936.8 688.4 L937.1 687.7 L940.6 679.0 L940.8 678.4 L944.1 669.7 L944.4 669.0 L947.5 660.2 L947.7 659.5 L950.6 650.7 L950.8 650.0 L953.5 641.1 L953.7 640.4 L956.2 631.4 L956.4 630.7 L958.7 621.7 L958.9 621.0 L961.0 611.9 L961.2 611.2 L963.1 602.1 L963.2 601.4 L964.9 592.2 L965.1 591.5 L966.6 582.3 L966.7 581.6 L968.0 572.4 L968.1 571.7 L969.2 562.4 L969.3 561.7 L969.8 557.1 L969.9 552.3 L969.2 547.5 L967.9 542.8 L965.9 538.4 L963.2 534.4 L959.9 530.8 L956.2 527.7 L952.0 525.3 L947.5 523.5 L942.7 522.4 L937.9 522.0 L668.4 522.0 L663.1 522.4 L657.9 523.8 L653.0 525.9 L648.6 528.9 L644.7 532.5 L641.4 536.8 L641.2 537.1 L641.0 537.3 L635.9 545.2 L635.8 545.4 L630.4 553.4 L630.3 553.5 L624.8 561.6 L619.0 570.1 L613.0 578.6 L606.9 587.3 L600.6 596.1 Z" fill="#F26644" fill-rule="evenodd"/><g transform="translate(807.8 682.8) rotate(120.0) scale(1.55)"><rect x="-46" y="-20" width="92" height="46" rx="23" fill="#F68D72"/><path d="M-24 -7 L-24 13 M-34 3 L-14 3" stroke="#F26644" stroke-width="8" stroke-linecap="round"/><circle cx="20" cy="-4" r="5.5" fill="#F26644"/><circle cx="30" cy="9" r="5.5" fill="#F26644"/></g><path d="M307.7 885.8 L305.6 890.2 L304.2 894.9 L303.5 899.7 L303.5 904.5 L304.3 909.3 L305.8 913.9 L307.9 918.3 L310.7 922.2 L314.1 925.7 L318.0 928.7 L322.2 931.0 L326.4 932.9 L327.1 933.2 L335.6 936.8 L336.3 937.1 L345.0 940.6 L345.6 940.8 L354.3 944.1 L355.0 944.4 L363.8 947.5 L364.5 947.7 L373.3 950.6 L374.0 950.8 L382.9 953.5 L383.6 953.7 L392.6 956.2 L393.3 956.4 L402.3 958.7 L403.0 958.9 L412.1 961.0 L412.8 961.2 L421.9 963.1 L422.6 963.2 L431.8 964.9 L432.5 965.1 L441.7 966.6 L442.4 966.7 L451.6 968.0 L452.3 968.1 L461.6 969.2 L462.3 969.3 L471.6 970.2 L472.3 970.3 L481.6 971.0 L482.3 971.0 L491.6 971.5 L492.3 971.6 L501.6 971.9 L502.3 971.9 L511.7 972.0 L512.3 972.0 L521.7 971.9 L522.4 971.9 L531.7 971.6 L532.4 971.5 L541.7 971.0 L542.4 971.0 L551.7 970.3 L552.4 970.2 L561.7 969.3 L562.4 969.2 L571.7 968.1 L572.4 968.0 L581.6 966.7 L582.3 966.6 L591.5 965.1 L592.2 964.9 L601.4 963.2 L602.1 963.1 L611.2 961.2 L611.9 961.0 L621.0 958.9 L621.7 958.7 L630.7 956.4 L631.4 956.2 L640.4 953.7 L641.1 953.5 L650.0 950.8 L650.7 950.6 L659.5 947.7 L660.2 947.5 L669.0 944.4 L669.7 944.1 L678.4 940.8 L679.0 940.6 L687.7 937.1 L688.4 936.8 L696.9 933.2 L697.6 932.9 L701.8 931.0 L706.0 928.7 L709.9 925.7 L713.3 922.2 L716.1 918.3 L718.2 913.9 L719.7 909.3 L720.5 904.5 L720.5 899.7 L719.8 894.9 L718.4 890.2 L716.3 885.8 L597.2 679.6 L594.4 675.5 L591.0 671.9 L587.1 668.8 L582.7 666.5 L578.1 664.8 L573.2 663.8 L568.3 663.6 L563.3 664.2 L558.6 665.5 L554.0 667.6 L549.9 670.3 L546.2 673.6 L543.1 677.5 L540.9 680.7 L540.8 680.9 L534.1 690.8 L533.9 691.0 L527.3 701.0 L527.1 701.2 L521.0 710.5 L519.4 712.6 L518.3 713.7 L517.0 714.5 L515.7 715.2 L514.2 715.6 L512.8 715.9 L511.2 715.9 L509.8 715.6 L508.3 715.2 L507.0 714.5 L505.7 713.7 L504.6 712.6 L503.0 710.5 L496.9 701.2 L496.7 701.0 L490.1 691.0 L489.9 690.8 L483.2 680.9 L483.1 680.7 L480.9 677.5 L477.8 673.6 L474.1 670.3 L470.0 667.6 L465.4 665.5 L460.7 664.2 L455.7 663.6 L450.8 663.8 L445.9 664.8 L441.3 666.5 L436.9 668.8 L433.0 671.9 L429.6 675.5 L426.8 679.6 Z" fill="#DB482C" fill-rule="evenodd"/><g transform="translate(512.0 865.6) rotate(180.0) scale(1.55)"><rect x="-13" y="-44" width="26" height="48" rx="13" fill="#E67861"/><path d="M-24 -8 a24 24 0 0 0 48 0" stroke="#E67861" stroke-width="8" stroke-linecap="round" fill="none"/><path d="M0 16 L0 30 M-14 32 L14 32" stroke="#E67861" stroke-width="8" stroke-linecap="round"/></g><path d="M86.1 522.0 L81.3 522.4 L76.5 523.5 L72.0 525.3 L67.8 527.7 L64.1 530.8 L60.8 534.4 L58.1 538.4 L56.1 542.8 L54.8 547.5 L54.1 552.3 L54.2 557.1 L54.7 561.7 L54.8 562.4 L55.9 571.7 L56.0 572.4 L57.3 581.6 L57.4 582.3 L58.9 591.5 L59.1 592.2 L60.8 601.4 L60.9 602.1 L62.8 611.2 L63.0 611.9 L65.1 621.0 L65.3 621.7 L67.6 630.7 L67.8 631.4 L70.3 640.4 L70.5 641.1 L73.2 650.0 L73.4 650.7 L76.3 659.5 L76.5 660.2 L79.6 669.0 L79.9 669.7 L83.2 678.4 L83.4 679.0 L86.9 687.7 L87.2 688.4 L90.8 696.9 L91.1 697.6 L95.0 706.1 L95.2 706.7 L99.3 715.1 L99.6 715.8 L103.8 724.1 L104.1 724.7 L108.5 732.9 L108.9 733.6 L113.5 741.7 L113.8 742.3 L118.6 750.3 L118.9 750.9 L123.9 758.9 L124.2 759.4 L129.3 767.3 L129.7 767.9 L135.0 775.6 L135.4 776.1 L140.8 783.7 L141.2 784.3 L146.8 791.8 L147.3 792.3 L153.0 799.6 L153.5 800.2 L159.4 807.4 L159.8 807.9 L165.9 815.0 L166.4 815.6 L172.6 822.5 L173.1 823.0 L179.5 829.8 L180.0 830.3 L186.5 837.0 L187.0 837.5 L193.7 844.0 L194.2 844.5 L201.0 850.9 L201.5 851.4 L208.4 857.6 L209.0 858.1 L216.1 864.2 L216.6 864.6 L223.8 870.5 L224.4 871.0 L231.7 876.7 L232.2 877.2 L239.7 882.8 L240.3 883.2 L244.0 885.9 L248.2 888.4 L252.7 890.2 L257.4 891.4 L262.2 891.8 L267.0 891.5 L271.8 890.5 L276.3 888.8 L280.5 886.4 L284.3 883.4 L287.7 879.9 L290.4 875.8 L428.9 636.0 L431.1 631.3 L432.5 626.3 L433.1 621.1 L432.9 615.9 L431.8 610.8 L429.9 605.9 L427.2 601.4 L423.4 596.1 L417.2 587.4 L411.1 578.8 L405.2 570.2 L399.4 561.9 L393.7 553.5 L393.6 553.4 L388.2 545.4 L388.1 545.2 L383.0 537.3 L382.8 537.1 L382.6 536.8 L379.3 532.5 L375.4 528.9 L371.0 525.9 L366.1 523.8 L360.9 522.4 L355.6 522.0 Z" fill="#B23520" fill-rule="evenodd"/><g transform="translate(216.3 682.8) rotate(240.0) scale(1.55)"><path d="M-13 24 L-13 -20 L33 -30 L33 16" stroke="#C96B58" stroke-width="10" stroke-linejoin="round" fill="none"/><ellipse cx="-22" cy="25" rx="12" ry="10" fill="#C96B58"/><ellipse cx="24" cy="16" rx="12" ry="10" fill="#C96B58"/></g></svg>